<svg xmlns="http://www.w3.org/2000/svg" xmlns:xlink="http://www.w3.org/1999/xlink"><defs><filter id="a" x="0" y="0" width="102.7" height="29.7" filterUnits="userSpaceOnUse"><feOffset dx="-1" dy="1"/><feGaussianBlur result="b"/><feFlood flood-opacity=".3"/><feComposite operator="in" in2="b"/><feComposite in="SourceGraphic"/></filter><filter id="a" x="0" y="0" width="295.2" height="99.4" filterUnits="userSpaceOnUse"><feOffset dx="-2" dy="2"/><feGaussianBlur result="b"/><feFlood flood-opacity=".3"/><feComposite operator="in" in2="b"/><feComposite in="SourceGraphic"/></filter></defs><symbol id="icon-card-between" viewBox="0 0 458 288"><rect width="458" height="288" rx="15" opacity=".5"/></symbol><symbol id="icon-card-bottom" viewBox="0 0 458 288"><rect width="458" height="288" rx="15" opacity=".3"/></symbol><symbol id="icon-card-chip" viewBox="0 0 70.1 54.8"><path d="M62.508 0H7.616A7.625 7.625 0 000 7.616v39.522a7.625 7.625 0 007.616 7.616h54.892a7.625 7.625 0 007.616-7.616V7.616A7.625 7.625 0 0062.508 0zm1.166 26.348H47.07v-7.753a1.168 1.168 0 011.166-1.166h15.439zm-16.6 2.058h16.6v8.92H47.07zm18.663-5.489h2.333v8.92h-2.337zm0-2.058v-8.92h2.333v8.92zm-2.062-5.489H48.236a3.229 3.229 0 00-3.225 3.225V48.3h-19.9V6.45h37.4a1.168 1.168 0 011.166 1.166zm-40.62 10.978H6.45v-8.92h16.6zM4.391 31.837H2.058v-8.92h2.333zm2.059-3.43h16.6v8.92H6.45zM36.091 4.391V2.058h18.8v2.333zm-2.058 0h-18.8V2.058h18.8zM23.055 6.45v8.92H6.45V7.616A1.168 1.168 0 017.616 6.45zM4.391 20.859H2.058v-8.92h2.333zM2.058 33.9h2.333v8.92H2.058zm4.392 5.485h16.6v8.92H7.616a1.168 1.168 0 01-1.166-1.166zm27.583 10.978V52.7h-18.8v-2.333zm2.058 0h18.8V52.7h-18.8zM47.07 48.3v-8.92h16.6v7.753a1.168 1.168 0 01-1.166 1.166zm18.663-14.4h2.333v8.92h-2.333zm2.333-26.28v2.264h-2.333V7.616a3.229 3.229 0 00-3.225-3.225H56.95V2.058h5.558a5.564 5.564 0 015.558 5.558zM7.616 2.058h5.558v2.333H7.616a3.229 3.229 0 00-3.225 3.225V9.88H2.058V7.616a5.564 5.564 0 015.558-5.558zm-5.558 45.08v-2.264h2.333v2.264a3.229 3.229 0 003.225 3.225h5.558V52.7H7.616a5.564 5.564 0 01-5.558-5.562zm60.45 5.558H56.95v-2.333h5.558a3.229 3.229 0 003.225-3.225v-2.264h2.333v2.264a5.564 5.564 0 01-5.558 5.562z" opacity=".3"/></symbol><symbol id="icon-card-date" viewBox="0 0 102.7 29.7"><g filter="url(#a)"><path d="M102.389 23.14a5.881 5.881 0 01-.844 1.967 3.969 3.969 0 01-1.406 1.271 4.116 4.116 0 01-1.971.45 4.2 4.2 0 01-1.772-.366 3.529 3.529 0 01-1.364-1.128 5.565 5.565 0 01-.872-1.939 11.239 11.239 0 01-.306-2.793 10.621 10.621 0 01.284-2.542 6 6 0 01.844-1.972 3.92 3.92 0 011.4-1.271 4.128 4.128 0 011.967-.45 4.2 4.2 0 011.772.366 3.509 3.509 0 011.363 1.132 5.626 5.626 0 01.872 1.944 11.187 11.187 0 01.306 2.792 10.77 10.77 0 01-.273 2.539zm-6.206.987a2.709 2.709 0 00.515.7 2.225 2.225 0 00.687.454 2.238 2.238 0 00.877.162 2.2 2.2 0 001.146-.306 2.564 2.564 0 00.877-.909 4.954 4.954 0 00.556-1.5 9.785 9.785 0 00.2-2.074q0-.316-.023-.626t-.051-.608l-5.13 3.813a4.761 4.761 0 00.346.9zm-.691-3.005a4.69 4.69 0 00.032.556l5.13-3.794a4.308 4.308 0 00-.353-.863 2.763 2.763 0 00-.509-.672 2.189 2.189 0 00-.678-.441 2.227 2.227 0 00-.853-.157 2.195 2.195 0 00-1.146.306 2.539 2.539 0 00-.877.914 5 5 0 00-.557 1.5 9.842 9.842 0 00-.194 2.073v.578zm3.334-13.665h-.7V6.213h-3.261v1.244h-.7l-.057-1.9h.066a.542.542 0 00.286-.086.866.866 0 00.272-.3 2.746 2.746 0 00.248-.587 7.373 7.373 0 00.213-.934q.1-.564.167-1.346t.11-1.829h2.777V5.56h.633zm-1.358-1.9V1.149h-1.27q-.03.914-.094 1.66t-.167 1.3a5.087 5.087 0 01-.248.925 1.21 1.21 0 01-.343.518zm-3.834-.914a2.717 2.717 0 01-.492.93 1.94 1.94 0 01-.724.545 2.2 2.2 0 01-.877.178 2.18 2.18 0 01-.965-.2 1.781 1.781 0 01-.681-.578 2.647 2.647 0 01-.4-.921 5.176 5.176 0 01-.131-1.224 4.358 4.358 0 01.18-1.328 2.7 2.7 0 01.49-.929 1.951 1.951 0 01.723-.545 2.185 2.185 0 01.875-.178 2.157 2.157 0 01.965.2 1.841 1.841 0 01.683.578 2.609 2.609 0 01.407.916 5.086 5.086 0 01.134 1.218 4.351 4.351 0 01-.188 1.336zm-3.381-.384a2.325 2.325 0 00.248.721 1.272 1.272 0 00.437.468 1.2 1.2 0 00.645.167 1.122 1.122 0 00.637-.178 1.384 1.384 0 00.442-.483 2.4 2.4 0 00.257-.714 4.359 4.359 0 00.083-.875 5.151 5.151 0 00-.077-.925 2.307 2.307 0 00-.248-.723 1.27 1.27 0 00-.442-.47 1.213 1.213 0 00-.652-.167 1.113 1.113 0 00-.634.178 1.386 1.386 0 00-.437.483 2.46 2.46 0 00-.255.716 4.357 4.357 0 00-.084.872 5 5 0 00.079.928zm.425 20.168a3.911 3.911 0 01-1.071 1.276 5.112 5.112 0 01-1.61.83 6.532 6.532 0 01-2 .3c-.18 0-.373 0-.58-.014s-.413-.022-.617-.038-.4-.032-.6-.05-.369-.04-.524-.065V25.2a7.881 7.881 0 001.146.176q.644.055 1.3.056a4.7 4.7 0 001.336-.177 2.987 2.987 0 001.012-.506 2.222 2.222 0 00.64-.8 2.421 2.421 0 00.223-1.053 1.8 1.8 0 00-.812-1.646 4.372 4.372 0 00-2.334-.515h-2.3v-6.2h6.531v1.41h-5.01v3.4h1.058a9.017 9.017 0 011.7.158 4.364 4.364 0 011.471.552 3.043 3.043 0 011.039 1.057 3.22 3.22 0 01.394 1.666 3.471 3.471 0 01-.394 1.647zM88.491 1.158h-2.509v5.058h-.8V.472h3.3zm-8.042 6h-.729L82.734.004h.73zm-6.835 21.5h-1.54l6.364-15.1h1.541zm5.43-21.2h-.7V6.214H74.82V.47h.782v5.067h2.18V.47h.782v5.067h.532zM73.52 6.214h-.791V3.837h-.593a1.475 1.475 0 00-.314.031.713.713 0 00-.259.112.836.836 0 00-.212.222 1.585 1.585 0 00-.169.356l-.575 1.657h-.875l.633-1.709a1.969 1.969 0 01.187-.382 1.652 1.652 0 01.191-.238 1 1 0 01.2-.156 1.1 1.1 0 01.2-.09 1.271 1.271 0 01-.457-.18 1.212 1.212 0 01-.337-.326 1.435 1.435 0 01-.2-.437 1.838 1.838 0 01-.068-.5 2.049 2.049 0 01.112-.692 1.394 1.394 0 01.352-.543 1.666 1.666 0 01.62-.358 2.914 2.914 0 01.933-.13h1.428zm-2.549-3.608a.877.877 0 00.22.33.945.945 0 00.363.2 1.7 1.7 0 00.5.068h.672V1.126h-.7a1.2 1.2 0 00-.846.264.975.975 0 00-.284.752 1.284 1.284 0 00.072.464zm-1.628 24.055h-7.988v-1.448l3.136-3.117q.77-.761 1.252-1.318a6.883 6.883 0 00.751-1.016 3.056 3.056 0 00.362-.867 3.961 3.961 0 00.093-.882 2.928 2.928 0 00-.121-.849 2 2 0 00-.371-.709 1.715 1.715 0 00-.65-.482 2.344 2.344 0 00-.955-.176 2.883 2.883 0 00-1.4.343 4.77 4.77 0 00-1.159.891l-.891-1.067a5.455 5.455 0 011.582-1.159 4.7 4.7 0 012.083-.436 4.3 4.3 0 011.471.241 3.307 3.307 0 011.146.7 3.09 3.09 0 01.747 1.113 3.974 3.974 0 01.264 1.485 4.282 4.282 0 01-.185 1.289 4.954 4.954 0 01-.561 1.183 9.3 9.3 0 01-.947 1.219q-.571.632-1.35 1.382l-2.2 2.143h5.891zm-.6-25.215a2.875 2.875 0 00-.645-.261 2.8 2.8 0 00-.73-.09 1.726 1.726 0 00-.732.151 1.524 1.524 0 00-.556.439 2.068 2.068 0 00-.351.7 3.334 3.334 0 00-.123.947 2.659 2.659 0 00.453 1.683 1.6 1.6 0 001.327.567 2.894 2.894 0 00.707-.086 3.377 3.377 0 00.65-.239v.738a3.748 3.748 0 01-1.445.285 2.381 2.381 0 01-1.87-.727 3.13 3.13 0 01-.652-2.151 4.067 4.067 0 01.18-1.248 2.715 2.715 0 01.515-.947 2.261 2.261 0 01.808-.6 2.587 2.587 0 011.064-.211 3.774 3.774 0 01.742.068 3.1 3.1 0 01.659.209zm-5.172-.316h-2.482v1.779h2.386v.66h-2.386v1.977h2.482v.668h-3.265V.47h3.265zm-5.128 5.084l-.114-3.581-.048-1.376-.268.8-.849 2.285h-.54l-.809-2.2-.268-.888-.017 1.437-.1 3.52h-.739l.282-5.744h.927l.773 2.163.251.729.241-.729.814-2.163h.953l.277 5.744zm-.218 20.447h-7.617v-1.5h3.118V16.31l-2.9 1.577-.593-1.373 3.859-2.031h1.428v10.678h2.709zm-22.649-3.488v-6l8 3zm-10.242-5.152a3.037 3.037 0 01-.2.7 2.367 2.367 0 01-.365.591 2.071 2.071 0 01-.55.454 2.789 2.789 0 01-.755.293 4.246 4.246 0 01-.98.1h-1.23v-5.743h1.481a2.653 2.653 0 012.006.692 2.962 2.962 0 01.661 2.116 4.771 4.771 0 01-.072.8zm-2.718 1.467q1.96 0 1.96-2.2a4.026 4.026 0 00-.114-1.032 1.642 1.642 0 00-.347-.681 1.339 1.339 0 00-.584-.376 2.644 2.644 0 00-.826-.116h-.672v4.407zm2.628 4.677a2.605 2.605 0 01-.134.859 1.778 1.778 0 01-.393.655 1.746 1.746 0 01-.635.417 2.355 2.355 0 01-.863.148 2.6 2.6 0 01-.91-.14 1.552 1.552 0 01-.608-.4 1.571 1.571 0 01-.343-.617 2.8 2.8 0 01-.107-.8v-3.863h.782v3.8a2.472 2.472 0 00.063.593 1.053 1.053 0 00.209.427.9.9 0 00.376.259 1.6 1.6 0 00.564.087 1.122 1.122 0 00.921-.36 1.555 1.555 0 00.3-1.015v-3.793h.782zm-5.686 2l-.858-1.837a1.978 1.978 0 00-.2-.349.932.932 0 00-.218-.22.756.756 0 00-.255-.117 1.262 1.262 0 00-.31-.035h-.37v2.558h-.782v-5.744h1.538a2.986 2.986 0 01.861.11 1.641 1.641 0 01.591.308 1.181 1.181 0 01.338.477 1.7 1.7 0 01.108.617 1.625 1.625 0 01-.079.508 1.414 1.414 0 01-.235.435 1.5 1.5 0 01-.387.338 1.758 1.758 0 01-.53.213.893.893 0 01.411.292 3.13 3.13 0 01.345.555l.91 1.89zm-1.573-3.186a1.811 1.811 0 00.5-.064 1.064 1.064 0 00.378-.189.852.852 0 00.241-.308.967.967 0 00.086-.419.826.826 0 00-.287-.689 1.273 1.273 0 00-.811-.229h-.739v1.9zm2.03-7.9h-1.322v4.416h1.322v.668h-3.436v-.668h1.323v-4.416h-1.323v-.659h3.436zm-4.676 11.084h-.782v-2.637h-2.413v2.637h-.782v-5.744h.782v2.43h2.413v-2.43h.782zm-.136-6h-3.3V14.42h.8v5.075h2.509zm-5.225 0l-.4-1.252h-2.39l-.4 1.252h-.813l1.907-5.743h1.073l1.88 5.743zm-.624-1.951l-.971-3.072-.971 3.072zm1.142 2.875h-1.7v5.076h-.791v-5.076h-1.7v-.668h4.192zm-6.539-.924H2.902L.995 14.42h.883l1.239 3.871.352 1.134.36-1.134 1.244-3.871h.835z" opacity=".9"/></g></symbol><symbol id="icon-card-holder" viewBox="0 0 295.2 99.4"><g filter="url(#a)"><path d="M294.149 17.476h-9.824v-2.137h4.43V2.762l-4.126 2.241-.843-1.951 5.485-2.887h2.03V15.34h3.85zm-15.3-3.1a4.847 4.847 0 01-1.384 1.74 6.844 6.844 0 01-2.32 1.174 11.16 11.16 0 01-3.257.428q-1.027 0-1.845-.066t-1.53-.171v-2.057q.818.146 1.727.224t1.859.079a9.144 9.144 0 002.208-.23 4.176 4.176 0 001.5-.666 2.564 2.564 0 00.844-1.055 3.54 3.54 0 00.264-1.4 2.363 2.363 0 00-.317-1.239 2.629 2.629 0 00-.89-.884 4.394 4.394 0 00-1.371-.534 8.017 8.017 0 00-1.747-.178h-1.965V7.656h1.991a4.624 4.624 0 001.417-.2 3.188 3.188 0 001.094-.586 2.543 2.543 0 00.7-.943 3.152 3.152 0 00.244-1.272 2.357 2.357 0 00-.843-2.018 4.1 4.1 0 00-2.479-.633 9.816 9.816 0 00-1.794.172 15.71 15.71 0 00-1.977.514v-2q.448-.158.956-.284t1.015-.211q.508-.085 1.009-.131t.962-.047a8.832 8.832 0 012.413.3 4.957 4.957 0 011.74.851 3.549 3.549 0 011.055 1.345 4.285 4.285 0 01.356 1.779 3.987 3.987 0 01-.759 2.479 5.22 5.22 0 01-2.076 1.6 4.67 4.67 0 011.325.422 4.611 4.611 0 011.174.81 3.972 3.972 0 01.844 1.167 3.4 3.4 0 01.323 1.49 5 5 0 01-.467 2.112zm-15.009 3.1h-10.823v-2.137h4.43V2.762l-4.126 2.241-.843-1.951 5.484-2.887h2.03V15.34h3.849zm-15.51 0h-11.351v-2.057l4.456-4.43q1.095-1.08 1.78-1.872a9.883 9.883 0 001.067-1.444 4.387 4.387 0 00.515-1.232 5.687 5.687 0 00.131-1.253 4.188 4.188 0 00-.171-1.206 2.881 2.881 0 00-.527-1.009 2.445 2.445 0 00-.923-.685 3.335 3.335 0 00-1.357-.251 4.1 4.1 0 00-1.991.488 6.827 6.827 0 00-1.648 1.265l-1.266-1.516a7.761 7.761 0 012.248-1.648 6.684 6.684 0 012.96-.62 6.073 6.073 0 012.089.344 4.651 4.651 0 011.628.989 4.382 4.382 0 011.062 1.582 5.622 5.622 0 01.375 2.109 6.127 6.127 0 01-.264 1.833 7.031 7.031 0 01-.8 1.68A13.274 13.274 0 01245 10.275q-.811.9-1.919 1.965l-3.124 3.046h8.371zm-31.454 0h-10.823v-2.137h4.43V2.762l-4.126 2.241-.844-1.951L211 .165h2.03V15.34h3.849zM200 85.302h-5.79v4.148h5.568v1.543h-5.568v4.614H200v1.559h-7.618v-13.4H200zm1.363-72.83a8.346 8.346 0 01-1.2 2.8 5.647 5.647 0 01-2 1.806 5.854 5.854 0 01-2.8.639 5.974 5.974 0 01-2.518-.52 5 5 0 01-1.938-1.6 7.905 7.905 0 01-1.239-2.756 15.927 15.927 0 01-.436-3.968 15.12 15.12 0 01.4-3.613 8.521 8.521 0 011.2-2.8 5.564 5.564 0 012-1.806 5.854 5.854 0 012.8-.64 5.96 5.96 0 012.518.521 4.982 4.982 0 011.938 1.608 7.978 7.978 0 011.239 2.762 15.93 15.93 0 01.435 3.968 15.28 15.28 0 01-.4 3.6zm-8.82 1.4a3.868 3.868 0 00.732 1 3.257 3.257 0 003.851.441 3.637 3.637 0 001.246-1.292 7.043 7.043 0 00.791-2.129 13.973 13.973 0 00.276-2.947q0-.448-.032-.89t-.073-.863l-7.29 5.418a6.766 6.766 0 00.5 1.266zm-.982-4.271q.007.409.046.791L198.9 5a6.169 6.169 0 00-.5-1.226 3.87 3.87 0 00-.725-.956 3.094 3.094 0 00-.962-.626 3.318 3.318 0 00-2.841.211 3.631 3.631 0 00-1.246 1.3 7.131 7.131 0 00-.791 2.136 13.977 13.977 0 00-.276 2.947V9.6zm-5.415 87.561l-.266-8.357-.112-3.209-.626 1.867-1.979 5.332H181.9l-1.887-5.126-.625-2.072-.04 3.353-.236 8.213h-1.723l.656-13.4h2.164l1.8 5.044.584 1.7.564-1.7 1.9-5.044h2.225l.646 13.4zm-.58-79.69h-10.824v-2.137h4.43V2.758l-4.126 2.241-.846-1.949 5.485-2.887h2.03V15.34h3.85zm-12.661 79.69l-.933-2.922h-5.578l-.943 2.922h-1.9l4.45-13.4h2.5l4.388 13.4zm-1.456-4.553l-2.266-7.168-2.266 7.168zm-2.092-80.391a7.379 7.379 0 01-1.793 2.98 7.216 7.216 0 01-2.939 1.72 13.457 13.457 0 01-4.047.554h-1.437v-2h1.6a11.114 11.114 0 002.94-.343 5.612 5.612 0 002.063-1.009A4.394 4.394 0 00167 12.499a6.582 6.582 0 00.541-2.182l.052-.54a7.851 7.851 0 01-1.912.784 8.825 8.825 0 01-2.346.3 6.343 6.343 0 01-2.294-.383 4.308 4.308 0 01-2.624-2.695 6.18 6.18 0 01-.329-2.05 5.756 5.756 0 01.435-2.241 5.485 5.485 0 011.22-1.813 5.76 5.76 0 011.879-1.22 6.3 6.3 0 012.412-.448 6.5 6.5 0 012.367.422 4.608 4.608 0 011.878 1.364 6.765 6.765 0 011.239 2.445 12.918 12.918 0 01.448 3.652 13.692 13.692 0 01-.607 4.328zm-8.668-5.214a2.764 2.764 0 00.593 1.075 2.613 2.613 0 001.035.679 4.28 4.28 0 001.5.238 5.823 5.823 0 001.009-.093 7.8 7.8 0 001.957-.619 6.353 6.353 0 00.8-.448 13.506 13.506 0 00-.25-2.841 5.2 5.2 0 00-.725-1.832 2.672 2.672 0 00-1.154-.983 3.875 3.875 0 00-1.536-.29 3.721 3.721 0 00-1.364.244 3.011 3.011 0 00-1.081.712A3.358 3.358 0 00160.755 4a4.336 4.336 0 00-.264 1.569 4.958 4.958 0 00.2 1.439zm-.338 90.158h-2.379l-3.907-8.357-1.128-2.687v11.044h-1.7v-13.4h2.348l3.721 7.916 1.344 3.065V83.761h1.7zm-28.491 0l-2-4.286a4.693 4.693 0 00-.462-.815 2.215 2.215 0 00-.508-.513 1.814 1.814 0 00-.6-.272 2.929 2.929 0 00-.723-.082h-.861v5.968h-1.825v-13.4h3.589a6.937 6.937 0 012.01.256 3.8 3.8 0 011.379.717 2.745 2.745 0 01.789 1.113 3.95 3.95 0 01.252 1.44 3.769 3.769 0 01-.185 1.184 3.246 3.246 0 01-.549 1.015 3.479 3.479 0 01-.9.789 4.124 4.124 0 01-1.235.5 2.1 2.1 0 01.958.682 7.37 7.37 0 01.8 1.3l2.123 4.409zm-3.671-7.434a4.224 4.224 0 001.164-.148 2.5 2.5 0 00.882-.441 2.009 2.009 0 00.563-.718 2.28 2.28 0 00.2-.979 1.93 1.93 0 00-.671-1.61 2.973 2.973 0 00-1.892-.533h-1.725v4.43zM138.3 15.092a4.108 4.108 0 01-1.252 1.431 5.9 5.9 0 01-1.9.883 9.881 9.881 0 01-4.857-.006 5.349 5.349 0 01-1.8-.884 3.73 3.73 0 01-1.094-1.345 3.951 3.951 0 01-.369-1.714 4.341 4.341 0 01.883-2.729 7.873 7.873 0 012.73-2.083 6.892 6.892 0 01-2.466-1.9 3.984 3.984 0 01.6-5.4 5.2 5.2 0 011.733-.969 7.484 7.484 0 012.452-.363 8.681 8.681 0 012.34.284 4.952 4.952 0 011.694.811 3.354 3.354 0 011.029 1.279 4.3 4.3 0 01-.494 4.232 7.141 7.141 0 01-2.381 1.846 11.263 11.263 0 011.424.843 6.152 6.152 0 011.147 1.029 4.173 4.173 0 011.028 2.821 4.1 4.1 0 01-.448 1.945zm-8.536-.751a2.354 2.354 0 00.7.77 3.2 3.2 0 001.068.475 5.433 5.433 0 001.345.158 5.743 5.743 0 001.319-.146 3.352 3.352 0 001.075-.441 2.212 2.212 0 00.718-.751 2.137 2.137 0 00.264-1.088 2.907 2.907 0 00-.158-.949 2.628 2.628 0 00-.567-.91 5.668 5.668 0 00-1.094-.9 12.886 12.886 0 00-1.74-.923 11.165 11.165 0 00-1.509.864 5.161 5.161 0 00-.989.87 2.766 2.766 0 00-.534.916 3.146 3.146 0 00-.158 1 2.091 2.091 0 00.259 1.059zm.191-9.209a2.56 2.56 0 00.613.817 6.3 6.3 0 001.035.752 14.478 14.478 0 001.477.751 7.459 7.459 0 002.215-1.457 2.467 2.467 0 00.724-1.76 1.983 1.983 0 00-.823-1.746 4.95 4.95 0 00-4.614-.007 1.927 1.927 0 00-.824 1.7 2.263 2.263 0 00.2.954zm-10.567 80.166H113.6v4.152h5.567v1.539H113.6v4.614h5.793v1.559h-7.623v-13.4h7.618zM123 2.376l-7.225 15.1h-2.623l7.5-15.1h-9.307V.24H123zm-16.078 89.781a7.129 7.129 0 01-.477 1.641 5.51 5.51 0 01-.851 1.379 4.826 4.826 0 01-1.282 1.062 6.516 6.516 0 01-1.764.681 9.815 9.815 0 01-2.286.241h-2.871v-13.4h3.455a6.193 6.193 0 014.681 1.615 6.919 6.919 0 011.543 4.937 11.1 11.1 0 01-.15 1.849zm-6.342 3.424q4.572 0 4.573-5.137a9.329 9.329 0 00-.266-2.409 3.828 3.828 0 00-.81-1.589 3.112 3.112 0 00-1.363-.877 6.155 6.155 0 00-1.928-.272H99.21v10.284zm6.642-81.34A5.362 5.362 0 01106 16.05a5.706 5.706 0 01-1.9 1.212 6.638 6.638 0 01-2.472.442 6.52 6.52 0 01-2.518-.454 4.481 4.481 0 01-1.832-1.4 6.538 6.538 0 01-1.12-2.38 13.341 13.341 0 01-.383-3.4 18.641 18.641 0 01.172-2.558 11.476 11.476 0 01.567-2.334 8.042 8.042 0 011.055-2 6.322 6.322 0 011.641-1.562 7.885 7.885 0 012.314-1.015 11.778 11.778 0 013.085-.363h1.7v2h-1.845a8.66 8.66 0 00-2.677.369 5.322 5.322 0 00-1.9 1.041 4.5 4.5 0 00-1.174 1.622 6.888 6.888 0 00-.514 2.122l-.053.541a7.842 7.842 0 011.918-.785 8.914 8.914 0 012.353-.3 6.292 6.292 0 012.288.382 4.494 4.494 0 011.634 1.062 4.384 4.384 0 01.982 1.628 6.29 6.29 0 01.33 2.083 5.808 5.808 0 01-.429 2.239zm-8.84-1.51a5.078 5.078 0 00.7 1.826 2.633 2.633 0 001.154.976 4.032 4.032 0 001.582.29 3.76 3.76 0 001.378-.244 2.956 2.956 0 001.081-.718 3.369 3.369 0 00.712-1.154 4.359 4.359 0 00.257-1.549 4.968 4.968 0 00-.192-1.43 2.7 2.7 0 00-.6-1.081 2.744 2.744 0 00-1.035-.686 4.117 4.117 0 00-1.5-.244 5.768 5.768 0 00-1.015.092 7.286 7.286 0 00-1.008.257 8.407 8.407 0 00-.943.376 7.01 7.01 0 00-.817.448 14.236 14.236 0 00.244 2.846zm-5.445 84.43h-7.71v-13.4h1.856v11.843h5.854zM90.8 14.293a5.572 5.572 0 01-1.522 1.813 7.25 7.25 0 01-2.288 1.18 9.282 9.282 0 01-2.848.422q-.382 0-.824-.02-.865-.039-1.727-.125a11.675 11.675 0 01-.745-.092v-2.083a10.983 10.983 0 001.628.25q.917.08 1.852.079a6.681 6.681 0 001.9-.25 4.258 4.258 0 001.437-.718 3.158 3.158 0 00.91-1.134 3.449 3.449 0 00.316-1.5 2.566 2.566 0 00-1.153-2.34 6.216 6.216 0 00-3.316-.732h-3.27V.236h9.281v2H83.31v4.838h1.5a12.84 12.84 0 012.413.224 6.187 6.187 0 012.089.784 4.319 4.319 0 011.477 1.5 4.568 4.568 0 01.561 2.366 4.932 4.932 0 01-.557 2.352zm-10.843 79.2a6.352 6.352 0 01-1.148 2.169 4.544 4.544 0 01-1.691 1.272 5.463 5.463 0 01-4.3-.051 4.172 4.172 0 01-1.589-1.349 6.149 6.149 0 01-.939-2.147 12.173 12.173 0 01-.307-2.856 10.171 10.171 0 01.42-3.1 6.3 6.3 0 011.143-2.169 4.558 4.558 0 011.687-1.272 5.112 5.112 0 012.04-.415 5.046 5.046 0 012.251.472A4.277 4.277 0 0179.12 85.4a6.111 6.111 0 01.949 2.138 11.854 11.854 0 01.312 2.84 10.128 10.128 0 01-.426 3.117zm-7.89-.9a5.515 5.515 0 00.58 1.682 2.966 2.966 0 001.021 1.092 2.79 2.79 0 001.508.39 2.631 2.631 0 001.487-.415 3.263 3.263 0 001.03-1.129 5.623 5.623 0 00.6-1.666 10.2 10.2 0 00.2-2.04 12 12 0 00-.18-2.157 5.366 5.366 0 00-.58-1.687 2.977 2.977 0 00-1.03-1.1 2.845 2.845 0 00-1.522-.39 2.6 2.6 0 00-1.482.416 3.225 3.225 0 00-1.02 1.128 5.7 5.7 0 00-.6 1.671 10.163 10.163 0 00-.2 2.036 11.791 11.791 0 00.181 2.178zm-5.684 4.568h-1.825v-6.152h-5.63v6.152H57.1v-13.4h1.825v5.67h5.63v-5.67h1.825zm-5.052-83.5h-2.94v3.811h-2.346v-3.811h-8.293v-2.017l7.343-11.4h3.3v11.4h2.94zm-5.287-2.017V2.45l-6 9.189zm-2.867 80.513a7.084 7.084 0 01-.477 1.641 5.538 5.538 0 01-.851 1.379 4.826 4.826 0 01-1.282 1.062 6.516 6.516 0 01-1.767.681 9.815 9.815 0 01-2.286.241h-2.868v-13.4H47.1a6.193 6.193 0 014.681 1.615 6.919 6.919 0 011.543 4.937 11.01 11.01 0 01-.15 1.849zm-6.341 3.424q4.572 0 4.573-5.137a9.368 9.368 0 00-.266-2.409 3.849 3.849 0 00-.81-1.589 3.112 3.112 0 00-1.363-.877 6.155 6.155 0 00-1.928-.272h-1.57v10.284zm-9.027 1.58l-2-4.286a4.756 4.756 0 00-.461-.815 2.215 2.215 0 00-.508-.51 1.831 1.831 0 00-.595-.272 2.929 2.929 0 00-.723-.082h-.861v5.965h-1.825v-13.4h3.588a6.933 6.933 0 012.01.256 3.8 3.8 0 011.38.717 2.745 2.745 0 01.786 1.116 3.969 3.969 0 01.251 1.44 3.743 3.743 0 01-.185 1.184 3.263 3.263 0 01-.548 1.015 3.479 3.479 0 01-.9.789 4.13 4.13 0 01-1.236.5 2.094 2.094 0 01.958.682 7.318 7.318 0 01.806 1.3l2.125 4.406zm-3.671-7.434a4.215 4.215 0 001.162-.148 2.484 2.484 0 00.882-.441 2 2 0 00.564-.718 2.28 2.28 0 00.2-.979 1.933 1.933 0 00-.671-1.61 2.974 2.974 0 00-1.892-.533h-1.721v4.43zm9.891-75.361a4.847 4.847 0 01-1.384 1.74 6.844 6.844 0 01-2.32 1.174 11.16 11.16 0 01-3.257.428q-1.027 0-1.845-.066t-1.53-.171v-2.057q.818.146 1.727.224t1.859.079a9.144 9.144 0 002.208-.23 4.176 4.176 0 001.5-.666 2.554 2.554 0 00.843-1.055 3.523 3.523 0 00.264-1.4 2.363 2.363 0 00-.316-1.239 2.637 2.637 0 00-.89-.884 4.4 4.4 0 00-1.371-.534 8.017 8.017 0 00-1.747-.178H35.8V7.65h2a4.624 4.624 0 001.417-.2 3.188 3.188 0 001.094-.586 2.553 2.553 0 00.7-.943 3.152 3.152 0 00.244-1.272 2.358 2.358 0 00-.844-2.018 4.1 4.1 0 00-2.478-.633 9.816 9.816 0 00-1.794.172 15.709 15.709 0 00-1.977.514v-2q.448-.158.956-.284t1.015-.211q.508-.085 1.009-.131t.962-.047a8.833 8.833 0 012.413.3 4.956 4.956 0 011.74.851 3.558 3.558 0 011.055 1.345 4.285 4.285 0 01.356 1.779 3.987 3.987 0 01-.759 2.479 5.22 5.22 0 01-2.076 1.6 4.671 4.671 0 011.325.422 4.611 4.611 0 011.174.81 3.972 3.972 0 01.844 1.167 3.4 3.4 0 01.322 1.49 5 5 0 01-.467 2.121zM25.112 97.161l-.933-2.922H18.6l-.943 2.922h-1.9l4.451-13.4h2.5l4.392 13.4zm-1.456-4.553L21.39 85.44l-2.266 7.168zm5.51-75.137H17.81v-2.057l4.456-4.43q1.095-1.08 1.78-1.872a9.881 9.881 0 001.067-1.444 4.389 4.389 0 00.515-1.232 5.687 5.687 0 00.131-1.253 4.188 4.188 0 00-.171-1.206 2.866 2.866 0 00-.527-1.009 2.444 2.444 0 00-.923-.685 3.332 3.332 0 00-1.357-.251 4.1 4.1 0 00-1.991.488 6.827 6.827 0 00-1.648 1.265l-1.266-1.516A7.761 7.761 0 0120.124.621a6.684 6.684 0 012.96-.62 6.073 6.073 0 012.089.343 4.651 4.651 0 011.628.989 4.382 4.382 0 011.062 1.582 5.622 5.622 0 01.375 2.109 6.127 6.127 0 01-.264 1.833 7.032 7.032 0 01-.8 1.68 13.269 13.269 0 01-1.345 1.733q-.811.9-1.919 1.965l-3.124 3.046h8.372zM12.425 86.035a6.842 6.842 0 00-1.508-.61 6.556 6.556 0 00-1.7-.21 4.019 4.019 0 00-1.707.354 3.542 3.542 0 00-1.3 1.025 4.791 4.791 0 00-.82 1.641 7.774 7.774 0 00-.29 2.209 6.2 6.2 0 001.059 3.928 3.728 3.728 0 003.1 1.323 6.7 6.7 0 001.651-.2 7.821 7.821 0 001.518-.559v1.723a8.748 8.748 0 01-3.374.666 5.558 5.558 0 01-4.363-1.7 7.3 7.3 0 01-1.523-5.019 9.434 9.434 0 01.421-2.912 6.307 6.307 0 011.2-2.21 5.277 5.277 0 011.886-1.4 6.037 6.037 0 012.481-.492 8.958 8.958 0 011.733.158 7.285 7.285 0 011.538.487zm.94-68.564H2.54v-2.137h4.43V2.757L2.844 4.998 2 3.05 7.485.16h2.03v15.18h3.849z" opacity=".9"/></g></symbol><symbol id="icon-card-logo" viewBox="0 0 120.5 20.5"><path d="M11.804 19.708a21.593 21.593 0 01-2.548.533 20.938 20.938 0 01-3.276.247 7.779 7.779 0 01-2.9-.468 4.4 4.4 0 01-1.832-1.313 5.125 5.125 0 01-.962-2.015A10.838 10.838 0 010 14.118V6.5h3.874v7.15a5.541 5.541 0 00.494 2.7 1.965 1.965 0 001.842.836q.416 0 .884-.039t.836-.091V6.5h3.874zm12.116.832q-4.394 0-6.695-2.444t-2.3-6.942a10.675 10.675 0 01.7-3.991 8.6 8.6 0 011.924-2.964 8.044 8.044 0 012.912-1.833 10.5 10.5 0 013.666-.624 11.75 11.75 0 012.08.169 13.487 13.487 0 011.638.39 8.083 8.083 0 011.17.455q.468.234.676.364l-1.17 3.276a9.815 9.815 0 00-1.937-.754 9.243 9.243 0 00-2.509-.312 5.542 5.542 0 00-1.833.312 4.145 4.145 0 00-1.586 1 4.987 4.987 0 00-1.1 1.781 7.472 7.472 0 00-.42 2.653 9.466 9.466 0 00.274 2.327 4.935 4.935 0 00.884 1.859 4.244 4.244 0 001.6 1.235 5.691 5.691 0 002.392.455 10.9 10.9 0 001.586-.1 11.776 11.776 0 001.248-.247 6.553 6.553 0 00.96-.329q.416-.182.754-.338l1.118 3.25a9.5 9.5 0 01-2.418.936 14.093 14.093 0 01-3.614.416zm13.858-3.064q.572 0 1.092-.026a7.6 7.6 0 00.832-.078V14.43q-.234-.052-.7-.1a7.818 7.818 0 00-.858-.052 7.678 7.678 0 00-1.027.065 2.683 2.683 0 00-.845.247 1.45 1.45 0 00-.572.494 1.376 1.376 0 00-.208.78 1.329 1.329 0 00.611 1.261 3.376 3.376 0 001.675.351zm-.312-11.34a8.971 8.971 0 012.86.39 4.442 4.442 0 011.833 1.118 4.109 4.109 0 01.975 1.768 8.721 8.721 0 01.286 2.314v8.06q-.832.182-2.314.429a22.236 22.236 0 01-3.588.247 11.375 11.375 0 01-2.408-.234 5.22 5.22 0 01-1.859-.767 3.51 3.51 0 01-1.2-1.391 4.8 4.8 0 01-.416-2.106 3.991 3.991 0 01.481-2.028 3.7 3.7 0 011.294-1.326 5.816 5.816 0 011.846-.715 10.356 10.356 0 012.154-.219 12.252 12.252 0 011.339.065 5.96 5.96 0 01.949.169v-.364a2.144 2.144 0 00-.6-1.586 2.9 2.9 0 00-2.08-.6 13.244 13.244 0 00-1.95.143 8.365 8.365 0 00-1.664.4l-.494-3.12q.338-.1.845-.221t1.1-.208q.6-.091 1.261-.156t1.35-.062zm17.706 3.8q-.52-.13-1.222-.273a7.551 7.551 0 00-1.508-.143 7 7 0 00-.871.065 5.126 5.126 0 00-.767.143v10.448H46.93V7.228a23.272 23.272 0 012.457-.689 14.157 14.157 0 013.159-.325q.312 0 .754.039t.884.1q.442.065.884.156a4.16 4.16 0 01.754.221zm5.772 3.3a4.746 4.746 0 00.806 2.886 2.784 2.784 0 002.392 1.092q.52 0 .962-.039t.728-.091v-7.048a3.366 3.366 0 00-.949-.39A4.573 4.573 0 0063.7 9.49q-2.756 0-2.756 3.744zm8.766 6.498q-.52.156-1.2.3t-1.417.242q-.741.1-1.508.169t-1.469.069a8.6 8.6 0 01-3.016-.494 6.059 6.059 0 01-2.236-1.417 6.149 6.149 0 01-1.391-2.236 8.533 8.533 0 01-.481-2.951 10.1 10.1 0 01.416-3 6.535 6.535 0 011.2-2.275 5.119 5.119 0 011.911-1.43 6.407 6.407 0 012.587-.494 6.085 6.085 0 011.443.156 7.81 7.81 0 011.287.442V.627L69.71.003zm10.3-12.532q.754-.208 2.028-.468a15.9 15.9 0 013.12-.26 6.5 6.5 0 012.561.442 3.934 3.934 0 011.63 1.26 5.145 5.145 0 01.871 1.963 11.389 11.389 0 01.26 2.522v7.515h-1.69v-6.968a12.73 12.73 0 00-.195-2.418 4.032 4.032 0 00-.65-1.614 2.527 2.527 0 00-1.2-.9 5.432 5.432 0 00-1.859-.273 14.22 14.22 0 00-2.067.13 6.334 6.334 0 00-1.131.234v11.809h-1.69zm13.98 6.24a8.534 8.534 0 01.507-3.081 6.787 6.787 0 011.326-2.2 5.22 5.22 0 011.872-1.313 5.7 5.7 0 012.171-.429 5.069 5.069 0 013.939 1.612 7.189 7.189 0 011.469 4.966q0 .208-.013.416t-.039.39h-9.438a5.945 5.945 0 001.222 3.8 4.561 4.561 0 003.64 1.326 7.355 7.355 0 002.184-.26 9.116 9.116 0 001.17-.442l.31 1.455a7.025 7.025 0 01-1.363.494 8.614 8.614 0 01-2.353.286 7.834 7.834 0 01-3.016-.52 5.4 5.4 0 01-2.054-1.456 5.756 5.756 0 01-1.17-2.223 10.34 10.34 0 01-.364-2.821zm9.542-1.066a5.339 5.339 0 00-.988-3.276 3.2 3.2 0 00-2.652-1.17 3.531 3.531 0 00-1.625.364 4.127 4.127 0 00-1.248.975 4.529 4.529 0 00-.832 1.417 5.812 5.812 0 00-.351 1.69zm16.978 1.092a8.69 8.69 0 01-.455 2.886 6.436 6.436 0 01-1.274 2.21 5.8 5.8 0 01-1.937 1.412 5.911 5.911 0 01-2.47.507 5.911 5.911 0 01-2.47-.507 5.8 5.8 0 01-1.937-1.417 6.436 6.436 0 01-1.274-2.21 8.69 8.69 0 01-.455-2.886 8.69 8.69 0 01.455-2.886 6.58 6.58 0 011.274-2.223 5.722 5.722 0 011.937-1.43 5.911 5.911 0 012.47-.507 5.911 5.911 0 012.47.507 5.722 5.722 0 011.937 1.43 6.58 6.58 0 011.274 2.223 8.69 8.69 0 01.455 2.891zm-1.794 0a6.345 6.345 0 00-1.17-4.017 3.814 3.814 0 00-3.172-1.5 3.814 3.814 0 00-3.172 1.5 6.345 6.345 0 00-1.17 4.017 6.289 6.289 0 001.17 4 3.827 3.827 0 003.172 1.482 3.827 3.827 0 003.172-1.474 6.289 6.289 0 001.17-4.008z" opacity=".9"/></symbol><symbol id="icon-card-top" viewBox="0 0 458 288"><rect width="458" height="288" rx="15"/></symbol><symbol id="icon-map" viewBox="0 0 1100 640"><path d="M102.7 341.2l2.2 2.8 1-2.9h2.4l1-1.7.9-2 .3-3.5 1.5-1.5.3-2.1 2.5-2.2-1.4-1.4 1.4-1.3 1.5-.8v-2.3l1.4-.8 1.6-1.6 2.3-1 .7-2.4-1.7-1.3-.6-1.4 1.3-1.2v-2.1l1.2-1.3 2.8-.2-.7-3.3.9-3-1.1-2.4-.1-2.4-2.2-2.2 1.1-2.2-2-2.4-3.9-.1-2.8 3.8-3.5 1.3-.2 2.5-1.8 2.2-4.2.2-1.6 2v3.5l-4 2.5-2.7.6.8 3-1.8 3.4-3.2 3.1-.5 2.4 1.5 3.3 2.4 2.3-.9 2.7-1 2.5 3.2.8 2.8 2.7v5.7l2.9-.3z"/><path d="M96.7 344.1l-1.2 2.5-3.3 1-1.4 3.7-1.8 4.3-1 4 .2 2.9-1.7 1.1 2.5 2.5-1 3.7-.8 3.3 2.5 1.4v2.9l1.5-1.6 1.7-2.7 2.2.2 2.5-1.3 2.2-.5 2.5-2.4h2.2l1.7 1.7.5 2 2.4.2.8-.8 1.4.4 2.4 1.9 1.8-1.5h2.3l3.1-.6 1.2-1.9 2.2-2.2 3-1.3.9-2.7-.9-1.8-2-1.5-1.2-2.5-1.3-1.4v-1.7l-2.9-.8-2.6.8-3.3-.9-1.6-1.6-2.5-1.4-1.9-1.9-.6-3.4-2.2-1.2-.3-1-2.2-2.8-2.9.3-3.1 2.6z"/><path d="M84 374.1l-3.3-1.1-1-2.5-1.9-2-2.5.1-.8 3-2.2 2.5-3.1 3.2-1.5 2.7 1.5 2.5 1.7 1.7 2.3-1.9 1.5 2.2 1.8 2 2.5.3 1.8 1.8 1.4 3.4-.4 2.6-1.1 4.5 1.8.1 1.2-1.7 2.4-.8 1.4 1.1h2.1l1.8-1.8h1.8l.4-1.5-.5-1.5 1.6-.6h1.8l1.4 1.3.9-.9.5-2.1 1-1-.3-2.4-1.6-1.6v-2l1.2-1.3V380l.7-2.5-1.3-1.3.2-1.7-1.6-2.5-2.5 1.3-2.2-.2-1.7 2.7-1.5 1.6v-2.9l-2.5-1.4-3.2 1z"/><path d="M78.2 414v-3.5l-1.9-3.4-1.8-2.8 1.7-1.3 1-2.5h2l1.5-1.4 1.8.1 1.2-1.7 2.4-.8 1.4 1.1h2.1l.9 1.4 1.8.7 1.2 1v2.7l1.9.5.5 1.6 1.8.8.5 3.7 1.8 3.1.6 3.8 1.8.4 1.4 1.3v2.8l2.1.4 2.3 1.5-2 2-2.5-.9-1.6 1.7v2.4l-1.8.8-.7-2.6-2.6-2.5-3.7-2.4-2.4.5-4.6-.9v-1.8l-2.4-2.6-1.1 1.2h-2.9l-3.4-.8 1.7-3.6z"/><path d="M91.8 450.5l-1-3.9-2.5-1.5-2.6-3 1-3.5-1-5.1-3.2-2.4-3.7-2.8-1.1-3.8-2.5-2-.9-2.4 2.2-2.5 3.4.8h2.9l1.1-1.2 2.4 2.6v1.8l4.6.9 2.4-.5 3.7 2.4 2.6 2.5.7 2.6.7 2.2-1.5 1.2 2.1 2.1-1.3 2.4h-1.7v3.3l.6 2.4-2.6 1.3v2.9l-1.9.1.5 2.1-2.9 1.5-.5-.5z"/><path d="M92.3 451l2.9-1.5-.5-2.1 1.9-.1v-2.9l2.6-1.3-.6-2.4v-3.3h1.7l1.3-2.4-1.2-1.3-.9-.8 1.5-1.2-.7-2.2 1.8-.8v-2.4l1.6-1.7 2.5.9 2-2 2.9.4 1.3 2.6 3 1-.6 3 2 2 2.6.3 2.4 3.3 1.7 1.6-.9 2.6 2 2 3.2 1.3 1.1 2.1 1.9 1.9 1 3.3 1.4 3.4-1.3 1.2h-3.3l-2.6-1.4-.6-1.8-2.4-.5-2.3 2.1h-4.8l-1.2 4-3.9 3.9h-4.3l-1.5 1.5h-2.3l-1.2-1.6h-2.9v-2.1l-1.3-1.3-2.8-1.3v-3.5l-2.2-2.5zm-37 93.3l-2.5-1.2-3.6-2.5-1.2-4-2.5-3.8-.8-3.3 2-2.1 2.4-.3 1.6-1.7h1.7l.9 2 1.5 2.2H58l2.5-3.2 2 .7v2.6l1.8 1.2.5 2.1.9 1.4h-2.9l-.9 1.5 1.4 1.3.8 1.5-.9 2-2.3 1-1.6-.2-2 2-2 .8zm6 11.7l.7 5.3 2.3 2.3 3.7.5 2.1 2.1.6 1.8 1.6-2.7h2.5l.2-1.8-.7-2.6.7-3.9 2.3-.9 3.4.1-.7-2.8-3.2-2.9-1.3 1.1v2l-1.2 1.2-3 .2-1 1-1.7-1.4h-2.1l-1.5.9-1.4-.3-2.3.8z"/><path d="M80.4 562.9l-1.6 3.4-1.9 3.2-2.6 1.8-.8-3-2.8-.3 1.6-2.7h2.5l.2-1.8-.7-2.6.7-3.9 2.3-.9 1.1 2.2 2.7 2-.7 2.6zm24.2-7.7l-1.7 1.8v2.7l1.8 1.8 1 3.1-.9 3.2-.7 2.9-1.9 1.9v1.2l-1.7 1.5-3.7 6v4.7l1 5.6-.6 4.4.3 5.3-4 1.8-2.7-1.1-3.8 1.3-3.7-.8-.5-3.2-1.8-5.5-.3-4L78 588v-2.2l-1.3-3.5-2.4-3 1.5-2.5 2.9-.4 1.8-1.4 2.8.2 1.7-1.3 2.8 1.6 1-3.9 2.9-3.5 3.1-1.7 1.7-.6-.3-3.8-3.4-.3-1.9-2.5-2.4-2.6 1-2.6-1.7-.9v-1.4h2l1.2-1.1-.8-1.4 1.3-1.2 2.2.7 2.5-.8 2.6-1.7 2.3 1.6 1.1 1.8 1.8.6.8 2.1-.2 2.9z"/><path d="M106.7 555.8l3.5-1h3.1l2.9-3.3 2.3-1v-2.4l-1.8-1.2-2.3-.1-.5-1.3 5.5-3.8v-1.6l-1.1-1v-2l-1.2-1.7 1.3-1.3 1.9.8.3 1.3h1.2l.3-2.1 3.5.3 1.1-2.7-1.7-1.7 1.2-4.2 1.9-1.1.5-1.9.4-2.1-3.7-.1-1.6-2.2-.3-3.2.5-2.5.5-2.8-2-1.3-.9-3.3-3-.7-1.8-1.7v-2.1l-1.6-.6-1.2 3.3-1.7.7-1.7-1.7-2 .8-1.8-1.8-3 2.7v3.6l2.1.1 2.5-1.3v2.5l-1.7 3.3-3.4 2.5h-3.8l-3.5 3.7-2-.5-.8.8-1.8-.7-1.3-1.3-1.2-5-2-.5-1.6-1.6v-2.2l-.9-2.4h-1.9v1.7l-1.2 1.2h-3.1l-1.6-1.2-2.1 1.7 1.9 1 .7 2.1h1.7l1.4-.5.7 2.2 1.4 1.4 2.9-.6 1.9.8.3 2.5 1.6 1.8.5 2.1L91 523l1.1 3-1.2 2.2 1.3 2.3 1.7 1.7 1.3 1.8v2l1.8 1.7.4 2.6 1.4 2.1v3.8l2.3 1.6 1.1 1.8 1.8.6.8 2.1-.2 2.9 2.1.6zM270 531l1.1 2.4 2.3 2.3 1.6 1.6.7 2.8 2.3 2.4-2.3 3.1-2.2 2.2h-3.7l-3.7.2-1.9-1.9-1.4-2.7h-1.7l-1.8 1.8h-2.9l-3.2-3.2-.7-1.9-2.4-2.5v-4.2l-2.1-2.1h-3.8l-3.2 1.2-1.2-2.5-3.1-2.5-2.9-1.5-3.8 1.8-3.5.5-2.8-.8-2-3.9-2.9-2.5-2 3.4h-2.1v-2.7l2-2-1.4-2.8-1.6-4.4-.7-4.5-2.5-3-4-1.5-1.2-2.8-2.1-2.2-4 .7h-2.4v-3.2l-1.1-3.3.1-1.9h5.9l1.7-3.5 3.2-2.3 1.9.5 1-2.2 4.5-.8 2.3-5.3 3.8-2.1 2.9-2.9 1.1-4.7h2.7l2.8 2.8-1.9 2 1.7 1.6 1 1.8-.1 4.3 1.2 1.3-.9 4.6 1.9 1.2 2.2 2.2 1.4 3.7v3.6l1.1 2.3-.9 2.3v3.2l-.7 1.6 1.9 1.1 1.8-1.7h2.8l1 1.8-1 2.5-2.7 1.1.6 1.3 1.8.4-.5 3.3-1.1 1.1.6 2.5h1.6l.3 1.5 2 2 2-1 1.5-1.5 1.7.9.7 1.7 1.7 1.3 2.2.6 2.1-1.7 1.4-3.3h5.9l2-.7 2.7 1.2h1.7l1.1 2.1-.8 2.1-3.1 1.5.2 2.1h1.8l.5 2.7z"/><path d="M305.5 510.3l-4.2-.8-3 .8-2.6-2.3-3.9-2h-3.5l-1.1 3.6 1.1 2.5-2.3 2.4 1.8 1.1 1.9 1.9 2.2 2.2-2.1 2.1h-2.3l-2.8-2.8-4.4.1-2.8 1.2 1.2 4.2-1.2 3-2.8.8-3.4-.8-1.3 3.5-.5-2.7h-1.8l-.2-2.1 3.1-1.5.8-2.1-1.1-2.1h-1.7l-2.7-1.2-2 .7H258l1-1.7 2.6-1.2.5-2.5 2.2-4.1h1.8v-2.9l2.2-2.9v-1.9l3.4-3.4 2.6-.9v-1.2l2.8-.2 1.2 1.6h1.9v-3.2l-1.1-3.7-4.1-1.3-1.8 1.2-4.1-.4-2.1-3.4-.5-4.5-1.6-1.6-.7-3.2 3.6-2.7 2.5.8 2.8 1.3 1.8 1.9v2.3l3.5 1.2 2.2-2.2 3.8-.9v-2l2-3.7.8-2.6-.7-2.8 2.3-.9 2.8 1.9.9 1.7 3 1 .6 1.2 2.2.3 2.3 2.2 2.1-2 2.4 1.3 1.8 1.8 1.7 1.8.1 3.7.5 4.2-1.6 2.5h-2.8l-1.7 1.6 1 3.2-1.6 1.6h-2.2l-.6 2.3 1.9 1.9 2.1.1.5 1.5h3.3l1.3 3.3-2.4 2.5-.9 2.4zm99.8 30.4l-2.8 2.8-4.7 1.3-4 2.2-1.8-2.7-3.5 1.7h-2.8l1-4.5 4-1.9v-2.3h-3.4l-3-1.8-1.8 1.8-3.3-1 1.1-3.9-2.5-2.4-3.3 2-3.7-1-.9-3 2.1-2v-3.2l.8-2.3-1.3-4.2-2.5-1.2v-2l.9-1.9 1.7-1.7v-2.3l1.4-.2 1.8-1.8.6-1.7v-2.9l4.2-4.2 3.2-.6 1.2-1.2v-2.2l-2.5-1.4-.8-1.9-1.6-1.6-2.2-1.1v-1.9l2.6-1.3-1.1-3.3.2-2.7 2.4-2.5 1.1-2 2.5-1.7 2.7 2.6-1.7 1.6v2l2.3.8 2.9.9 1.8.8 2.2 1.4h3.3l1.2-1.6 2.8 1.5 2.5.7h4l3.3-1.5 2.7-2.7 1.5-2.1.5 1.6-.8 2.1-1 2.3v3.3l1.9 2-.6 4.2 1.9 3.7 1 2.9v8l-2.7 2.7.6 1.8v2.5l-1.3 1.2-2.3-.8-2.2.8-3.1 3.7-1.9 4.6.8 5.9v3.3l1.7 1.7v2l-1.9 1.8-1.4 4z"/><path d="M422 555.1l-1.8-1.8-1.9-4.1-2.1-2.1-2.9-1.1v-3h2.4l2-2.7-.9-2.3h-3l-2.5 2.5-3.5.1-2.5.1 1.4-4 1.9-1.8v-2l-1.7-1.7v-3.3l-.8-5.9 1.9-4.6 3.1-3.7 2.2-.8 2.3.8 1.3-1.2V510l-.6-1.8 2.7-2.7v-8l3.6.9 2 2h4.2l4.5.6 3.7 2 4.5 1.9 2.8 2.8 2.3 2.2 3.3 4.6h7.2l2.9 4h3.4l4-1 2.4-2.4 2.1 1 .6 4.3v3.1l1.3 1.3-1.5 1.6 1.8 1.8 2.1-2.1 2.2-2.5 4.2.3.5 5.5 1.2 2.3.8 5-.6 7.2 2.1 3.1-5.5 3.1h-3.2l-2.3 1.8-2.2-1.3-2.3 2.3-2-2-3.2 3.2-1.4 3.8-2.2 1-2.3-3.3h-1.9l-1.5-2.2V551l-3-3-1.5-1.6-3.5.2-4.8 1.6-4.9 3.7h-5.5l-3.3 1.3-2.5.9-1.8-1.9-1.2 1.7-2.6 1.2z"/><path d="M473.7 601.1l-2.4-2.1-3.1-1.4-2-2.1h-4.3l-2.1 2.1-4.1.7-1.7-1.7-3.7.7-2-2-1.8-1.8V591l-1.8-2.2-2.7.8-1.8 3.9-3.7.6-2.2-4.3-1.1-3.8-.9-4.4-2.8-5v-4l-2.7-2.5v-5.5l-2-6.6-2.8-2.9 2-.9 1.8-2 1.8 1.9 5.8-2.2h5.5l4.9-3.7 4.8-1.6 3.5-.2 4.5 4.6v2.4l1.5 2.2h1.9l2.3 3.3 2.2-1 1.4-3.8 3.2-3.2 2 2 2.3-2.3 2.2 1.3 2.3-1.8h3.2l5.5-3.1 2 3.9h3l2.2 4.1 1.8 1.9.7 3.1 2.6 1.6h2.5l.1 2.3-2.5 1.1 1.8 3.1v2.6l1 2.8-2.7 1.2-1.5 2.7 1.8 1.8-1.3 1.9h-1.7l-1.6 2.1-3.2-2-2 2v2.5l-1.8 1.9-2.2 2.3h-2.8l-4.4 1.6-3.5 1.1-1.6 1.6 2.2 2.3 1.4 1.4v3l-3.2.2z"/><path d="M524.5 616.5l-3.9.9-2.8 2.7-5-.1-4.1 2.3-2.2 2.2-4.8-.9-1.5-2.5-1.9-3.3-.9-3.4-2.6 2.6-4.3 1.6-4-1.3-4.5-1.2v-4l-3.5-2.1-1.3-3-2.9-1.9-.6-4 3.2-.2v-3l-1.4-1.4-2.2-2.3 1.6-1.6 3.5-1.1 4.4-1.6h2.8l4-4.2v-2.5l2-2 3.2 2 1.6-2.1h1.7l1.3-1.9-1.8-1.8 1.5-2.7 2.7-1.2 3.2 2.9h3.3l2.8 1.5h1.7l.1 3-2.1 2-2.4 2.5.7 3.2-1.6 1.6 3.4 3.5h2.7l1.7-3.3h1.7l.5 3.8 1.1 3.7 3.8 3.8 3.1 2.9-.7 2.4-2.8.6-1.2 1.3 2.5 2.5v2.7l1.2 2.4z"/><path d="M605.6 579.4L603 582l-2.1 4.2-2.2 2.3-.7 4.3 2.1 2.5v3.7l2.9 3v4l-3.9 2.5-3.8 3.8h-8l-4.5-1.2-4.6.9-3.4-1-4.8-1.7-2.7-2.7-3.1-3.1-3.9-1.2-4.5 1.8-2.8-2.8-3.6-1.6-2.9 2.9h-3.7l-1.1 3.5h-4.4l-5.5 3.5-3.3 3.4h-3.3l-.7 3.5-1.2-2.4v-2.7l-2.5-2.5 1.2-1.3 2.8-.6.7-2.4-3.1-2.9-3.8-3.8-1.1-3.7-.5-3.8 1.5-1.5 2.9.7 3.2.3 3.2-3.2V583l3.6-1.9 2.9 2.9 3.8 1.4h3.8l3.4 1.7h2.6l3.5-1.5 4.9-4.2 3.5-1v-4.3l2.5-2.5v-2.7l3.8-1 1-6 1.7-1.7 4.3.8 3.2-3.2 3.7.2 1.4-1.4 1.9.6.8-2.1h3l2.5 1.9 3.8.5 3.1 3 2.1 1h3.7l1.5-1.5 1.7 1.7 1.4 1.4-2 2v2.9l-1.7 1.8.6 2.8 1.6 1.6.2 3.2zm285.7-58.5l-1.9 1.9-3.8-1-3.2-.8-4.8.7H873l-1.8 1.8-5 1.8-5-1-2.1-4.1-2.4-2.4-2.8-2.3-3.2-3.2-4-.7-1.7-4-3.8-3-2.7-2.7-3.7-1-1.3-3.5-3.3-1.5-2-2-6.7-.7H818l-4 2.2-5-.8-3.8 1.3H801l-5.7 4.2-2.7 2.7-2.4-4.2-1.1-2.2h-2.8l-.8-3.6-1.4-2.2 2.5-1.5V488h-1.3l-2.3-2.4-1.8-.3.4-4.3-1.1-1.9-1.2-3.3-2.7-1.3-1.9 2.7-2-.8-.2-2.8-1.3-1.3-2-.5-2 2-1 2.5-3.4-.9-1.1-2.1 2-2.5-1.2-1.9-2.3.8-2.9-.8-2-2v-2l2.9-2.9 3.2-2.7h3.2l1.5-1.5 1.8 1.8 2.5.5 1.1-1.1h3.3l1.4 1.8h2.1l.6-2.5 4.2.8 1.5-1.5 3-.6 2.8 1.3 3.5 3.5 2.7-1.2 3-.7 1.4-1.9 2.3 1 1.7-1.7h1.9l1.8 1.8 6.6-6.6 3.6.6v-2.3l4.5-1.7 3.2.6 3.3-2.1-.2-3.4 5.4-3.2 5.1-4.2 1.3.8 2.1-1.1 1.9-2.4 2.7-.4 2.3-2.3 3-.6 3 1.7-1.1 2.9.1 2.3-2.1 2.9v5.1l-1.1-.1-.9 2.3 1.8 3v2.3l-2 1.1-1.2 2.8 2.1 2.6 4.1.6 1.4-1.3 2.6-.9 4.6 6.3 2-1.8 2.1.1 3.1-4.5 3.2-1.2 1.1-1.1-.7-3.1.9-2.6 3.2-.6 1.7-1.7 1.8-3.1 3.1-.3 2.9 2.9.9 5.1 3.1 2.1-1.2 4.1-5.4 2-2.9-.1-1.3 1.8 3.4 3.4.1 2.2-3 3.4-.4 4.8-2.8 2.6-.1 2.3-2.3 2.7 2 3-1.6 2.9.7 6.7 1.8 1.8h1.7l1.9 2.9 1.4-1.4 3.6.4.6 2.6 3.1 2.3.3 2.4 1.4.4 1.9 1.4.1 4-1.6.7.7 2.6-.8 2 .3 3.7-3.5-1.3z"/><path d="M928.5 506.1l-4 2.2-1 3.3-2.7 4.3-3 3.8 1.3 4.2-3.5 2.8-3.5 2-3 1-.8 3h-3.2L902 531l-2.3-.8v-3.8L897 524l-2.2-2.2-.3-3.7.8-2-.7-2.6 1.6-.7 1.8.3 1.8-2.7 1.5-1.5-.3-3.5 2.7-.4 2.8.5 3.8-1.8 2.7 1.3 3.3 3.9 2.1-2.9 4.6-1 1.7-3.1 3.4-.4 2.9-1.1-.3 2.7 1.1 1.1-.4 1.9h-2.9zm42-10.8l1.8 4.8 1.4 5.4 1 4.8 1 6.5v6.3l-1 3.4V541l-1 6 1 6.1-.4 8v3.9l-3.3 5.5-2.2 4.6-2.5 4.7h-2.1l-4.2 1.7-3.5 2-2.4-1v-2.3l-1.3-1.2-1.2 2.8v3.1l-1.4-1.4-2.2-2.2v1.7l-.7 4.1.7 2.9-.9 3.2-1.4 1.4v4.4l-3.2-.2-1.3-1.3 1.1-3.9 2-4v-3.3l-1.7-3.9-3.6-3.6-1.8-1.8-1.5-3.9-3.2-3.1-3-1-.1-3.3 2.1-2.1 1.8-1.8v-3.3l2.4-2.4 2.6-1.3 2.8.9 2.4-2.4 1.5-3-2.7-4.2 1.4-3.5-1.7-3.6-.3-3.9-2.4-3.1.7-2.7-1.8-3.2 3.2-.4v-1.4l-1.8-1.8.4-3.2 2.9-4 2.4.7.6.6h2.3l.8-1.2 3.4.5.3-1 3.4-.5 2.7-3.4v-4.7l-2-.6.5-2.7 4-1.5 1-2.3.4-3.3-1.3-3.2-1.3-.3-1 2-2.8.3-.8-2.3-3.1-.4-.5-2.3 3.3-2.8 1.2-4.5 2-.3 2.3 1.8 1.8 1.8 2.4-.1 1 2-.8 1.8 2.9 2 2.7-2.3-.2 6.2zm-28.4-285.8l2.1 2.1v5.3l1.7 4 .3 6.3-1.2 3.8-1.3-3.3-3-1.5v4.2l-2.5-2.5-1.7-1.7-1.3-2.8-4.7-4.3 1.3 3.7-1.3 4H926v2.7l-1.5 5.5-1.8 2.2.2 7.3 3 2-.5 4.7 3 4.7v5l.9 6.6 2.8 2.8v3l2.3 2.3 2.2-.3 1.9-1.8 1.4-1.4h2.5l-.2 3.2-2.7.8v4.5l-5 .8 1.2 5.8-.5 2.5-3.2 1.3v3.5l-1.2 3.2-3.2.2-1.5-1.5v-2.2l.7-2.2 2.8-.9-1.3-1.3-3 1.2-3.2.5v1.5l-4.7 2.2-2.3 2.8-2.7.7-2.2 2.2-.8 2.5.8 3.2 1.8 1.8-2.2 2.3-3.5-1.3 1.1 3.6-2.6 2.6-2.3 2.2-.8-2.6-3.6-3.6h-2l-1.5 1.4-2-1-2.9-.1-2.5 3-2.3.1-1.9-2.8v-3.8l3.1-1.8-2.5-3.4v-2.5l-2.3-.8-3.8-2.4-2.3-1.1-6.4-.4-3.4 4-2.7-.1.5-3.1-2.5-2.5-.6-2-2.2-2.2-3.9-2-1-2.4-2.7-3.6v-2l-1.4-.6.6-3.3 1.5-1.5-2.3-1.4.5-2.9 4.4-1.8V267l3.3.1-.3-3.7-2.5-.7-1.7-2.2 2.1-2h2.1v-2.6l2.1-1.5v-1.9l2.6-.6 1.6 1.9 2.2-.3 1.1-2.4-.7-2.1 2.3-3.6.7-2.4 2.3-.4v-2.1l-1.1-3-2.7-1.6-2.6-2.6-.2-6.3-2.5-1.3-1.8-2.4v-2.8l2-.4-.9-2.7-2.8-.8.5-2.5 2.9-1.1v-2.9l1.4-1.4h3.2l.3-3.4h4.2l1.7-1.7-1-3.4 1.5-2.8-2-3.2 3.7-1.6 1.7 1.7 2 2.9h2.8l3.3-1.3 1-2.1 3.4.7 4-.4 3.5-4.9 5.3.8 5.5-6.5 4.2.4.1 1.8 1.1 1.1-.8 2.3 4 1.8.5 2.5 4-.8 1.3 3 2.8 1.1.1 2.3 2.1 2.1 2.4-.7h2.9l.5 2h1.9l1.4 1.6-1 3.6h1.5l1.1-1.8 1.1 1.1v2.3l3.8.3zm-718.3 61.2l-.6.9 1.1 1.3 1.3-1.3-1.8-.9zm141 2.1h-1.7l-1.8-2.7-1.1.6-3.1-3-2.5-2.6.9-2.7 2.5-.8.9-1.5-1.7-1.4.2-3.6-1.1-.3-1.1-2.7-2.2-.2-1.8-2.5.6-3.4 2.4-3.3 2.9.3.9 1.1 1 .4.5-2 3.5-1 2.7-2.9-1.8-2 2.4-1.5 2.7 1.1.8-2.3v-2.2h3.4l1.7 1.6 1.7-1.7.4-1.6 3.8-.8-1.3-1.3-3.2-1.1v-1.2l3.8-1.1 3.9-1 2-2h2.5v-1.8l3.7-.1-2-2 3.2-.2 1.2 1.2-.2-3 1.5-1.5-1.6-2 1-1.6 1.8 1.8h2.3V210l3.3 1.2 1.7-1.8 1.7-1.9h2.1l3.6-1.7 2.6.9h3.8l2.5-2.5 2.9.2 1.4 2h3.1l1.6 1.5 2.7-.8h3.8l2.5-2.4 2.9-1.6 3.9-1.5h3.7l2.1 3.3v3.6l-3.2 2.9-2.9 2.7-3.7.3-4.6 2.1-4.1-1.5-1.9 2-4.7-.2h-6.1l-2.2 2.5h-4.7l-3.5 1.9 1.1 2.4-2.5.9-2.8-.3h-2.6l-.3 1.7-2.7-.8v2.8l-2.8 1.9-2.2 1.7v-2.6l-1.8 1.7.4 3h-1.8l-1.3-1.3v3.7l-1.3-1.3-1.7 1.7-1.4 1.5h-2l-1.5 1.9-2 3.3h-3.2l-2.5 2.2v2.8l-2.6 1.1-.9 3-2.1 2.1v3.8l-1.1 2.7 1.4 4-1.2 3.9 1.6 2.6.8 2.7-.9.9-2.6 1.2v-1.9l-2.4-1.4zm96.3-148.7l-1.2.4 1 1.4v1.2h1.7v-2.4l-1.5-.6zm-.3 10.6l-.9 1.4-3.3.6-2.1 1.2 1.6.7-.7 1.8 1.4.3h2.7l2.2-2.1 1.6-1.7-.5-2.4-2 .2zm-10.4-2.2l-.7.7 1.3 1.3 2.4-.9v-2H452l-1.6.9zm-1.8 3.9l-1.8-2-1.4 1.3-1 2v2.5l2.1.4.5 1.5 2.6-.6 1.7-1.7 1.3-1.2.7-2.1h-1.9l-2.8-.1zm-7.5 8.7l-.8.8v1.6h1.7l.6-2-1.5-.4zm-3.5-6.4l-.8-.8H434v1.8l-1.5 1.5.9.9 3-.6 1.1 1.1 2.6-.6.8-1.8 1.9.7-1-2.3-1.7-1.7-2.5 1.8zm13.9-20.8l-.7 1.5 1.3 1.3 1.2-1.3-1.8-1.5zm-2.7 3.5h-2v2.2l2.1 2.1v1.8l1.9-.9-1.2-2.4-.8-2.8zm-12.5 6.5h-1.8l-.4.3 1.5 1.5.7-1.8zm1.5 2.8l-1.2 1.2 1.2 1.3 1.3-.1-1.3-2.4zm1.1-5.5v1.7h1.7l-.3-1.9-1.4.2zm2.4 4.1v1.4h1.5l-1.2-1.1-.3-.3zm1.5 3.3l.6.6 1.1-1.1-1.7.5zm1.7-6.6v1.7l1.5.2V126h-1.5zm-2.2-3.5l.8 1.6.8-.8-.8-.8h-.8zM426.1 133l-.9.9 1.6 1.7h1.8v-3l-1.2-1.6-1.3 2zm4.2-2l.6 1.7h1.2v-1.5l-1.8-.2zm-7-10l-1.3 1.2v1.4l-1.4 1.5-2.6-1.9-2.1 1.2v1.5l-2.6-1.9-2 .7.6 3 1.9-.6v2l2 .5 1.8-1.8 2.5-1.1 2.2.7h3.1l2.2-2.3-2.1-2.1 1.4-1.4-2.4-1.5-1.2.9zm-7.2-3.1h-2.7l-1.6-1.7-1.2 2.3 1.5 1.4.5 1.7 3.3-1.1 1.1 1.1 2.1-.9.9.9v-1.9l-1.4-1.4h-1.3l-1.2-.4zm2.5 13.2h-1.1l.4 1.5 2.2.1-1.5-1.6zm.4 3.3l-1.1 1.1.9.9 2.1.5-1.4-1.4-.5-1.1zm9.1-16.2v1.7h1.3l1.2-1.3-2.5-.4zM274.5 290l-2.9 2.9-2.1 2.6v-3.7l2.3-2.3-2.8-4.4-1.9-1.9H264l-4.5 1.4-4-2.1-4.8 1.8-5.2-.8-.2 5.8-2.8 2.3 1.2 2.9-1.4 1.4-4.8-1.4-1.8-3.9-2.9-2.9-1-4.9-1-7.5H228l-2.8 3v2.8l-.4 3.7 2.2 2.2-.8 4.1-4.2 3-3.7-3.6-3.4-3.5-.9 1.1-1.2 1.9-1.8-1.1-.7.7-1.3-1.6-1 1.1.2 2.6-1 2.3-2.1 1.1-.8 1.9-.5 4.1 3.2 3.2-1.2 3.4-2.8.8.3 2.3-.5 2.7-3.3 3.2-1.2.3-1.3 1.5-2.5 5 .3 1.6-1.3 1.3.9 4.6 1.9 1.2v2.1l2.6 1.3.7 1.7 1.1.7 1.5 1.5h1.7l1.4 1.4.6 1.9 3.4.2 2.5.6 1.1 1.1 2.1.6.8 2.1 2 1.9 1.3 1v1.7l1.4.5h2.8v-1.1l1.4.4h1.8v2.2l1.1 1.1h1v1.4l2 1 1.2 1.2 1.8-1.7.5-1.5 1.8.8 1.3 2.2-1.4 1.4 1.9 1.1v1h1.4l1.8.7-.8.8 1.1 1.6 1 1.1 1.8-1.6 1.3.4.9 1.5.6.7 1.6 1.6-.6 1.8 1.5.8 2.1-.6-.1-1.2 1.4.4h2.6l.4 1.4 1.6.3 1.5-1.7 1.6-1.2 1.4-2.4-1.8-1.9 1.3-1.3 2-1.2.2-1.5 2.6-1.6 2.2-2.2 1.5-.7 2-2-1.4-1.5-.1-2.2-1.7.8-1.1-1.1H266l-2.2.5-.9 2.1-1.1-.4-1.5 2.2-1.4-1.5-1.6-.5-1.7-.8-.3-2.9 2-1-.3-1.8.8-.8.6-1.6 1.9-.5 2.4.5.4-1.5-.3-2.6-1.3-1.2.7-2.6 2.2-1.4v-2.4l.7-2.3-1.8-1.8-1.7-2.5v-2l-.4-2.2h2.1l2.3 1.7 2 .7 1.4 1.4 2.8.6 2.5 1.4 2.6 2.7.5 2.5 1.9-1 2.3-.8 1.7 1.1 2.2.5 2.1 1.7h1.5l1 1 1.5-1.5 1.5-2.5-1.3-1.3-.5-2.2 1.1-2.3-.8-1.6-1.9-1.9-.7-1.4 1.5-1.5 1.2-1.2V316l1.1-1.2 1-2.5 1.8-1.8-1.4-1.4-3.2-1.5-.3 1-2.9 1-1.5-.6-2-2.3-1.5-1.5-.7-2.8-2.6-2.6-1.5-1.9-.9-3.5-1.3-2.8-1.3-1.6zm656.3 105.9l-1.2.3-.9-2.5v-2.2l3.7 1 1.9.9 1 2.3 2 2 3.6.7.9 2.3 4 2.6h2.2l1.7 2.5 1.4 3.9 2.2 2.2 4.3 4.4 2.7.7 3.8 1.4 3.6 3.2 4.9 2.7 3.2 2.7 4.2 2.2 3.6 2.2 2.3 1.9 4 1.6-.6 1.9-1.4 1.4-2.7.9H983l.6 3-.6 2.2v1.7l2.5 3.8 1.9 3 .1 4.5 1.9 1.9 2.9 2.9 2.5 1.6h3.7l2.2 2.2h2.5l1.3 2.7 3.2.1 1.9-1.9 3.4 1.9 2 2.6v1.7l-4.6-1.9-1.7 1.7h-3.7l-1.2 3 .7 2.9 2.3 2.3 1.7 3.8-2.3 1.9-1.9-2.3-2.5-2.5-4.3-4v-2.7l-2.9-2.9-2.7-2.7-1.9-2.5-2.3-4.5-2.9-2.7-3-1.7-2.9-.9-2.5-5.2-5.3-7.4-4.3-4.3-3.6-3.6-3.2-4.3-2-3.3-5.5-2.5-4.3-1.9-2.6-.3-3.5-4.8v-2.2l-3.7-3.8-2-3.7-4-1.3 1-2.9v-2.2l3.3 1 .6-2.9-1.9-1.9v-1.1l-1.9-1.9-2.7-.9zm121.9 75.3l.5 3 .3 2.9 1.2.4v-2.3l.9-1.8v-2.6l-2.9.4zm9.9 1.7v1.3l1.9 1v-2.1l-1.9-.2zm-5.9-11.6l1.7.7.6-2.3-.9-4.6 1.6-1.6-.3-3.4-2.4-.7-.7 3.8.9.9-.8 2.8.3 4.4zm4.3-19.1l-.7.7.6 2.5 1.1-1.7-1-1.5zm1.8-8.8l.7-3.7-1-2.3.5-2.5 2-1.9.5 2.6-.4 2.8.5 3.1-1 2.4-1.8-.5zm1.8-32.1v5.7h2.1l-.6-2.4v-3.5l-1.5.2z"/><path d="M984.2 298.3l2.2 4 4.5 3 4.7 2.5 7.2 2.2 3.3.7 3 2 1.8 2.5 6.3 3.3 5.5 2.3 5.8 2.7 3 3h3.3l2.4 2.4 3.1 1.6h4.8l1.8 2.5v-3.3l-.8-4.5-1.7-7-.7-5.3-3.2-3-4.3-4.3-2.8-1.2-1.7-6 1.3-3v-3l3.7-.5v-2l-4.8-1.2-1.4-1.4-2.9-1.1-3.3-5.2-1.2-6.7 1.7-3.7 2.8-1.8 2-1.3-1.2-3-3.3-2.7-5.7.7-2.4-2.4-3.1-.8-3.5-5.8-1-4 3.3-1 1.3-3.2-3.3-3.3h-2.8l-1.7 1.7-4.3-1-4.3-3-.6-3.7-4.3-4.3-1.2 2.5-1.6 1.6v1.4l1.3 2.8h-4.7l-2.8-2.8-4.6-2.4-.5-3.7-.7-4.7-3.2-3.2-2.3-2.3-2-2-2.5-4.2 1.8-1.8v-4.3h2l3.1-3.1-3.1-1.4V201l-1.8-4.8 2-.2 2.3 2.3 3.2 1.5v-2.7l-2.8-4.3v-2.5l1.3-4.7-1.8-1.8 3.5-5 2.2-5 4.2-1.3 3 1.5 2.8-2.5-1.8-1.8-2.8-3.2-1.7-6.7V155l-3.2-2.8-1.7-5.2-.8-5.3-1.7-4-1-4.7-1.8 2.6-2.9.2-2.1-2.1-2.5.8-.7 4.3-1.2 4.3-2.5 3.9 1.5 2.2-1.7 5.1-1.7 3.7-2.8 1.7-1.9-1.9-2.5.8-2.3 2.3-2.9.5-2.6 3.4-2-2-1-2.8-1.4-2.6-.9-3.4-2.1-.6-2.9 2-1.7 1.7-2.4-1-4 .6.8 2.5-1.4 2-1.8-.5-4 1.2v2.9l-1.8 1.3-1.1 3.5-2.8-.2-3.3 2.5 1.2 1.2-1.7 1.7-2.7 1.5-1.5 3v2.9l1.2 1.4 4.2.4.1 1.8 1.1 1.1-.8 2.3 4 1.8.5 2.5 4-.8 1.3 3 2.8 1.1.1 2.3 2.1 2.1 2.4-.7h2.9l.5 2h1.9l1.4 1.6-1 3.6h1.5l1.1-1.8 1.1 1.1v2.3l3.5.4 1.6-2.3 1.5.2.3-2.2H942l-2.8-2.8-2.9-2.9-2-1.8 1-2.7v-3.5l3.7-2 2.6-2.6 1.1 1.1-3.2 3v3.8l3.5 2.2 2.3 3 1.9 1.9 2.1.8h2.2l2.2 4.2 2 2v5.1l-1.2 4 .2 3.3 2 1.7 2 6.2 1.7 4.2 1.5 5.2 1.3 5.5 3.2 4.2 2 6.2.8 5.3 1.7 5-1.3 1.3-1.5 1.5 1.6 2.8-1.2 2.5-1.4 1.4v1.4l3.1.7 2.8 4 .5 3.8 2.3 2.3v3.5l3.3 3.5 5.1 4.6z"/><path d="M980.7 215.1v3.2l-.3 2.9 1.8 1.1 1.1 1.5.1 2.5 2.4.9-.6-2.6-1-2 1-3.3v-4.1l-2.8-1.1-1.7 1zm56.1 15.1l-2 .8 1 2.1h6.9l2.2-2.1-2.8-.9-2.7 1.1-2.6-1zm10 106.3l-.9 2.6-1.4 1.4 1.6 1.6.9 1.9-.2 2.6-.2 3.3 1.5 1.5 1.7-.9V347l1.5-1.5-1.2-2.9-2-2 .1-2.6-1.4-1.5zm6.2 22.5v2.2l1.4.7 1-1.3-2.4-1.6zm-3.9-136.3l-1.9 1.3 1 1 1.4-1.3 1.3-1.4-1.8.4zM975.2 133v-6l-1.2-5.3-2.8-4.3 1.3-1.3-3.9-2.6 1-1.5h3.5l2.2-4.7 3.3-1.3v-3.5l-2.4-2.4-1.3-2.9-2.7 2-1.8-1.5-2.2.3-1.8 1.8h-2.9l-.8 1.6h-3V99l-3.7.2-2 .3-2.5-.2-1 1.7-2.1 2.1-3.6.1-2 1.5v3.2l-2.2.8-1.6-1.7 2.7-3.2h-1.8L937 105l1.2-2.7 3.5-1.5h2.5l2.7-4.3-.7-3.8-1.3-4.8-2.8-2.8-2.6-2.6L938 84l-.2-3.2h-2.5l-3.7 1-2.3-2.3v-2.3l-2.9-.5 1-1 1.5-.7-1.3-1.3.3-1.6 1.7 1 1.8 1.5h3.2l2.2-1.7 2.2 1.7 2.8-2.8v-4.3l-1.3-2.5 2.8-4.2h3.2l2.5 1 3.5-1.2 1.8-4 3.5-3.8 3.8-.3 1.5-4.3-2.8-.8v-1.3h3.5l-1.2-2.7v-2.2l-1.8 2.3-1.8.5-2.2-3.3-3.1-3.1v1.8l-3.9-1.5L948 40l-3-.5 3.8-2.5v-5.5l-3.5 1 1.8-3.8-1.6-1.7-2.2-1.8v-2.8l-3.8 1.8-3 4.2h-1.2l-4 1.5-2.3 2.3-1.7 2.3-.3 3-1.8-.2v1.5l2.7.7-3.2 2.2-1 3 3 .8 4.7.3 4-.8v2l-4 2.2-2.3 2.3-3.4-2.6-3.8 1.2-2.7-2.7-2.3 1.3-3.7 1.7-3 3.2-5.7 1.7-3 4.3-4.2 1.7-3.4 3.4-3.3 3.3-3.6 2-5 2.2-2.6 2.6-5.7 5.7-5.1 4.9-1.3 4.8-2.8 4.2-1 3 1 2.8h-2.3l-2.7 1.5-.3 3.5-3 1.5-.8 3.2v1.8h3.3l1 2.3 4.2-.7 5.7 2.5 1.8.3 1 2.7-.8 2.7-3.3.8-3.7 1.7-2.7 1H858l-2.5-2.5 2.4-2.4-3.2-3.2-1.8 1.8-1.8 3.3 2.3 3.3-.7 2 1.7 1.7-1 4-4.2 3v3.3l-2.2 2.2h-2.5l-1.5 2.8v5.5l1.3 1.9 4 1.4 3.3.4.8 2.1 3 1.1 2.6 4.4-3.4 2.6-1.6 4v3.3l-2.3 1.6v3.4l-2 3.1 1.4 3.3 2.6 1.5v3.9l3.3.5 3.1 1.4 3.4-1.1h2.7l2 2 1.8 3.5h1.9l3.7-1.6 1.7 1.7 2 2.9h2.8l3.3-1.3 1-2.1 3.4.7 4-.4 3.5-4.9 5.3.8 2.3-2.3 3.2-4.1-1.2-1.4v-2.9l1.5-3 2.7-1.5 1.7-1.7-1.2-1.2.8-.8 2.5-1.7 2.8.2.7-3.1 2.2-1.7v-2.9l4-1.2 1.8.5 1.4-2-.8-2.5 4-.6 2.4 1 1.7-1.7 2.9-2 2.1.6.9 3.4 1.4 2.6 1 2.8 2 2 2.6-3.4 2.9-.5 2.3-2.3 2.5-.8 1.9 1.9 2.8-1.7 1.7-3.7 1.7-5.1-1.5-2.2 2.5-3.9 1.2-4.3.7-4.3 2.5-.8 2.1 2.1 2.9-.2 2-2.5zm-117-83.7l-1.3-.5-1.2 1.2-2.5 1.3-2.1 2.1.2 3.5-.9.9.5 2.9 1.6 2.4 1.8 4 2.6.5 1.8-1.7 1.3-2.5-1.4-1.6 2.2-3.2-.4-3.5V51l-2.2-1.7zM31.5 278.1l2.6.6 2.3-.6.8-1.7 2 .4 1.9 1.8.1 2.6 1.5.5.3 2 2.4.4.5-1.9-1.3-1.3 1.2-1.1.7.7 2.2 1.9v2.9l-.3 2.5 1.4 2.1 1.3.9.4 3.3-1.1 2.4-5.6 2.8-8.4-10-4.9-11.2zm111.2 21.4l-1.5-1.1-1.2.2.4-1.6.4-1.4v-.9l.5-.6 1.4 3.4 2-2 1.1-1.3.5.6v1.2l-.8 1v1.3l-1.5.7h-.7l-.6.5zm-43.5 75l-1.6-2.5 2.2-.5 2.5-2.4h2.2l1.7 1.7.5 2 2.4.2.8-.8 1.4.4 2.2 1.7 2-1.3h2.3l3.1-.6 2.4.6 1.2 2.5 1.5 1.5h2.8l1 2 1 1.8-1.1 1.7-.9 1.8v2.5l-2.5 1.7-2.5-1.6-.8.8v1.9l-2.2.4-2-1.9-1.6-.9-2.9.8-1.4 1.4-1.5-.6-2.3 3.2-3.7-1.5h-2.6l-2.5-.8-.3-2.4-1.6-1.6v-2l1.2-1.3V380l.7-2.5-1.3-1.3.2-1.7zm59.7-32.5l1.2-1.2.5-2.4-2.2-3.5-2.4-.8.7-1.6 1.1-2-.9-2.5-.4-2.5-1.3-1.3-1.9-.7 1-2v-2l-2.1-1-.3-2-2.4-.1-1.4 1.4-1.8-2.3.5-4.3-1.5-.3-1.7-1.7-1.6 1.3-1.7.5-2.5-1.1-2.7-.3h-3.8l-1.2-2.3-1.4.7-1.2 1.2-2.2-.2-2.8.2-1.2 1.3v2.1l-1.3 1.2.6 1.4 1.7 1.3-.7 2.4-2.3 1-1.6 1.6-1.4.8v2.3l-1.5.8-1.4 1.3 1.4 1.4 1 2.2 1.5 1.5h3l1.4 1.5 2.5-.2 2 1.2h3.5l1.9 1.9 2.3.2 1.4-1.4h2.8l1.8-1.7h2.2l1.9.9 1.3 1.3.6 2.4h2.4l1.6 2h2.2l.4-1.4 1.4 1.4 2.2 1.1 2.8 1z"/><path d="M135.1 360v2.2l.9.1.3 1.8h2.5l1.4 1 2.2 1.2h2.6l1.7 1.7h2.8l2.3 1.3 2.2.6 1.9-1.8 3.2-2-1.2-2.7v-1.6l1.8-1.8-.7-3 1-2.2h2.4l1.1-3.4 3.2-1.4v-3.3l.9-2.8-2.4-.8-2.7.5-1.9-.8-1.6-.8-2.4-1.1-2.7-1.1-1.4-1.4-.4 1.4h-2.2l-1.6-1.9h-2.4l-.6-2.4-1.3-1.3-1.8-.9H140l-1.8 1.8h-2.8l-1.4 1.4-2.3-.3-1.9-1.9h-3.6l-1.9-1.2-2.5.2-1.5-1.5h-2.9l-1.5-1.5-1-2.2-2.6 2.2-.3 2.1-1.5 1.5-.3 3.5-.9 2-1 1.8H106l-1 2.8.3 1 2.3 1.3.6 3.4 2.1 2.1 2.3 1.3 1.6 1.6 3.3.8 2.6-.8 2.8.8v1.8l1.3 1.3 1.3 2.5 1.8 1.4 1 1.9 1.1-1.4h1.9l1.3-1.9 2.5-1.1z"/><path d="M150.7 388l-.8-1.6v-2.2l-1.6-.7-.8-2.2 1.9-1.4-.1-2.2 1.4-1.4.6-2.1 1.9-.9-.5-2 1.2-1.4-2.2-.6-2.3-1.3h-2.8l-1.7-1.7h-2.6l-2.2-1.2-1.4-1h-2.5l-.3-1.8-.9-.1V360l-2.6 1-1.3 1.9h-1.9l-1.1 1.4-.8 2.8-3 1.3-2.3 2.3-1.2 1.8 2.3.7 1.1 2.1 1.7 1.8h2.7l1 2 1.1 1.8-2.1 3.5v2.5l1.5 2.4 2.1.4v1.8l-.7 2 .6 2-.8 2.8.3 2.3 2.5-.4.4-1.8 2-.4.7.7 3-.1.9-.9 2.6.5 1.6.6 1.7-.4.7-.7 1.9.2h2l-.1-2.4 1.1-.5.6-1.7.2-3.2-1.3-1.3-1.4-.8zm-8.2-8.4l-1.1 1.4.4 1.8h-2.3l-.6-.6-.7-.7-1.2 1.2-1.7.1.7-1.8v-3.2l1.2.2 1.1-1.5-.4-.9 1.1-.9 1.5-.4-.1 1.1.6 1.1.1.2 1.6.7 1.1 1.1-1.3 1.1z"/><path d="M141 376.6l-.1-.3-.5-1v-1.1l-1.5.4-1 .9.3.9-1 1.5-1.2-.1v3.1l-.7 1.9 1.7-.1 1.2-1.3.7.7.6.7h2.3l-.4-1.8 1.1-1.4 1.2-1.2-1.1-1.1-1.6-.7zm234.4-94.9l-2.5 1.2-1.8.6.5 4 .3 2.1 1.6.4.7 3.2 3.1.3 1.1-2.6-1.5-2.5.1-2.9-1.6-3.8zm-53.6-13.1l-3.3.9-2 2.5-1.5 2 1.1 2.9 2.4.9 2.3.9 2.1-1.5 2.6.4 1.3-3.1-2.1-2.8-.2-2.2-2.7-.9z"/><path d="M396.9 309l-1.4 2-1.6 1.6-1 1 1.6 1.5.3 1.3 1.3.4v5.7h-1.6l-1.9-1.1h-1.9l-3.3 2.8-2.9.2-1.3 3.2-4.4-.8-1.2 1.9-1.9 1.9-1.9 1.1-3.7 1.3-3.2.8-3.8-1.9-2 .4-2.3-1.9-4.4-1.8-4.5-2.9-3.3-1.3-5.4-2.1-2.7-2.7-3.3-.3-5.2-3.3-2.6-2.6-4-1.8-4-3.4-3.7.4-2.8 1.8-17.3.1-1.4-1.4-3.2-1.5-.3 1-2.8 1-1.6-.6-2-2.3-1.5-1.5-.7-2.8-2.6-2.6-1.5-1.9-.9-3.5-1.3-2.8-1.3-1.7 4-.8 3.3-4.8v-4.2l1.3-2.8 4.3-2.2v-2.7l4.2-2.5v-4.2l-.7-4h2.8l.9 2.1 3.8 3.8 2.8 4.3v5.8l-1 3-1.5 1.5-2.5-2.5-3.5-.8-5.3 1.8v4.3l1.3 4v3.3l3.8 1 3.7 1.7 4.2-2v-3l4.3-1 4.2 2-.7-2.7 6.5 1.2 3.5-.7 6.3.8h3.7l1.8 3.3h1.7v-3l5.3-1.7h2.8l1.2 4.3h-3l-1 3-2.5.8 3.8 3.5h2.7l5-2.2 4.8.9 5.2 5.2 1.8-1.8h3.5l4.4-1.4 1.8 1.8-.5 2.3-2.7 1.8v2.8l3.2 2.7.3-3.1 1.4-1.4 3.3.8V306l3.2-.5.7-4-.5-4.8 3-1.5 2.6-.8 3.1 3.1 1.3-1.3 3.4 4.3 3.9 3.9 3.2 3.2.5 1.4zm72.7-30.6l-1.7 1.7-1.8 1.5 1.7 1.2 1.3-1.2h2.2l1.9-1.8-1.8-1.9-1.8.5zm-5.5-16.8l-1.3 1.2.9 1.4 1.8-1.2 2.3.6-.6-1.4-3.1-.6zm-6.9 6.1l-.8 1.9 1.2 1.1 1.4-1.7-1.8-1.3zm-16.2-9.9l-1.7 1.2.7 1.4-1.3 1.7.3 1 2.8.8 2.5-1.2 1.5.1v-1.5l-2.4-.6 1.2-1.4-1.3-1.9-1.7.6-.6-.2z"/><path d="M392.3 326.9l.3-1.8 1.3-.7.8-1.8h1.6v-5.7l-1.3-.4-.3-1.3-1.6-1.5 2.6-2.6 1.4-2 1.3 2.7 3.9 3.9 2.7 4.2 2.8 3.8v3.3l2.3 3.7 3.3-2v-3.5l3.8-3.5-2.7-.8-1.8-4.3.7-4.7-3.2-2.2-1.8-3.6 1.6-1.6 3.3-1.7v-2.7l.8-4 1.5-2v-2.5l-2.2-.7 1.2-3.3 1.8-2.3 3.3-1.2 3.6-1.8 1.3-1.3 2.8-2.8 2.2-4.8 1.7-4 1.8-4 3.2-1.7 2 2.8h4l2 2h3.5l1.5 5.7-1.7 1.7-.6 6.1-4.8 4.8-1.3 4.3 2.8 2.5-1 5.7-.8 4.5-3.3 5-1.2 7.2-1.8 6.3-1.3 3.2 1.3 4.4 2.9 2.9-.5 2.7-3.7 2.8-.7 6.2-3.7 1-4.3 4.3-2.5 3.7-2.3 1.3-4.2-.8-2.5 1.7-2.8-1.8-1.8-1.8-2.5-.8v3.2l2.5 3.8 2.5 1.2 3.3 2.3 2.8-.2 2 2.8h3l.6-2.9 1.8-1.8h2.2l1-1 4.2-1.2 3.3-1.8v-3.5l1.5-1.5 2.6-2.6 2.1-2.1 1-4-.8-3.5-.3-3.2 2.3-2.3 2.3-2.3h3.5l3.8-.5 1.1 3.2 1.6 1.6 2 5.2-2.7 2.7.2 4v2.5l3.3 3.3 3.8.8v-2.3l-3.8-1.1-1.4-1.4v-2l-.3-3 2.7-.8 1-2.2-1-3.2 1.2-2.7-1.7-3.3-2.2-2-1.3-1.3-4.1-1.4-2.3-2.3-1.9 1.9-2.5 1.2-1.3-1.8h-3l-.5-3.2 2-2-.5-5.3 2.3-3.7 1.5-4.3 3.3-3.3-1.2-3.7-1-3.2.4-3.4-2.4-2.4 2.7-2.7 4.2-4.2h3.5l2-3.2 1.3-3.5-1.2-2.8 1.2-2.5h2.7l-.8 3.5v4.8l-.7 4.3-3 3v7.2l3.5 2.7 2 1.7 2.6-1.6 2.6 2.6 2.8 2.7v-2l-1.1-2.6-1.9-1.9-3-1.5V294l-2.5-2.5-1.2-3.7 3.5-2.3 1.7 1.7 2.7 2.7 2-1.8-.7-2.2-.4-1.9 1.9-1.9.2 2h1.6l.7 1.8 1.3 1.3 2.3.6 2.3 1.3.6 2.2-1.6 1.6.3 1.8-3.2.5-1.4 1.4-.9.9 1 2.2.8-.8 1 2 3.6 2-.3 4v5.8h-3.3l-1.3 2-2.5 2.5-3 2.3.2 3.1 1.5 1.5.5 1.8 2.1 2.1 3.2.5.4 2.2 1.1 1.1 2-1.8 1 1 2-1.9-.1 3.3 2.6.5v2.6l1.6 3.8-.9 2.4H486l1.3 2.5-1.3 2.8-1.8 1.8-.6 2-2.3-.5-.1 2.7 1.6 1.6.5 3-1.4 2.5 1.5 1.5v2.3l3.7 2.2 1.4 2.9-2.3 2.1v1.7l1.2 2v3l-1.5 1.2 1.8 3.3h2l2 2 1.5 3 .3 3.8-1.7 1.7.8 3.5 3.8.8 1.9 1.9 1.9-1.9.7 4-.7 3.5 1.2 2.7-2.3 2.3-2.4 3.1-1.7 3.2 2.5 3.5v4.2l-2.4 2.4-.3 3.8-1.4 1.4-3.9 3.9-3.5-4.3h-2.3l-2.5.8-2.5-4.2-4.8-1.5-1.6 1.6-3.4-4.4-1.3-3.5-3.5 2.3-3 1.7-1.3 2.3h-12l-2.7-2.7-3.5-1.8 1.2-3.2-4.5-1.8-1.6 1.6-2.7-2.7-4.1-1.1-2.8.7-3.3-3.5H421l-2.5-4h-2.8l-5.8.7-1.2-3.3.8-3.3-3.8-3.8v-2.9l-.9-4.5-4-4h-4.5l-1.8 1.8-2.5-2.5-2.3 2.3-4.5-.8-2.5-2.8 2.9-2.9-3.8-3.3-3.8-2-3.5 1.5-3.5-1.5-4.5 1-3.3-3.3-2.8-2.8-1.6-1.6 3.1-3.1 1.3-4.1-.7-4.5.3-5.5 4.3.2v-3.7l5.3-3 5.3-1.2h5.7l1.2-3.7h3.2l3-3 4-2-2.6-2.6 3.1-1.3v-2.2L392 328l.3-1.1zm498.4 83.9l-1.4 1.6v4.2l2.4-1.1 1.3 1.3 1.5-1.4.6-2.9-1.6-2.3-2.8.6z"/><path d="M840.3 436.8l-1.9-4.4v-3.3l-2.2-2.2 1.9-1.9.6-4.3-4.6-2h-3.7l-.4-2.2 2.6-.5-1.4-2.7.7-5.1-3.1-.5-3.1-3.2 2.7-.6.3-4-1.2-1.2-.7-2.1 1-2.6-2.1-2.1 1.8-2.4-1.5-1.5v-3.6l3.4-1.8 2.3-1.3 2.7.3 2.2-2.2 3-1.2.4-2.9-1.9-1.9 1.1-2.8 3.9-.7 5.1-5.1-.2-5.7 3.6-1.2V356l-3.6-3.6-.8-2.5-4-4-2.6-.6-.5-3.2.6-3.9-2-2 3.1-4v-3.5l.2-4.4-1.6-1.6-.8-3.1-1.5-1.5-.1-3.9 2.9-.6 2.5.6 3.2 1.8 3.2-1.7 2.6-.8 2.6-2.6 1.9-3.3 2.5.1 1.5-.9 1.1 1.1 1.4-.5v-2.8l-.2-4.6 2.7.1 3.4-4 6.4.4 6 3.5 2.3.8v2.5l2.5 3.4-3.1 1.8v3.8l1.9 2.8 2.3-.1 2.5-3 2.9.1 2 1 1.5-1.4h2l3.6 3.6.8 2.6h-2l-2 1.8 1.3 2.2 1 1-2.8 1.8h-3.8l-3.8 3.7-2.4 2.4-2.7 4.5-2.8 2.8-2.8 5.7-.5 5.5 2.7 5.3-2.5 2.5-.8 5.3 1.5 3.8 2.3 2.3-2 3.3v10.5l-1 4.2v5.7l1.7 1.8v8.5l-1.5 5.7v4.7l-2.5 4.2v4.2l-1.3 3.7 1.5 3.4h2.5l2-2h2.7l2.2-2.2 2.4-2.4 1.7 1.7 2 1v2.2l1.6 2.9 2 2 1.8-1.8V427l-2.3-1v-2.5l1.8-2v1.7l2 1.5 1-.3 1 1v5.2l3.3-1.3v-1.7l1.8-2.5 1.2-1 1.8 1.3.4-2.8-1.6-1.6-1.5-2.8-1.8-3.3 3-1.7 1.8-1.8 3.7-.8h4.3l3.6.4 1.6 1.6 4.7-.7 3.2-1 2.1 2.1-1.6 1.6-1.2 1.2-1 1.8h5.8l.7 2.2 2.5 2.5 3.1-.4 1.6 1.6 1.7 3.2.5 6.3 2.2 6.7 3.4 4.9 4.3 4.3 1.7 1.7.8 2.8 3.3 3.3 2.3 4 .8 2.3 3.1 4.8 2.6 2.6v7l-1 6 1.8 6-2.7 2.3-2.8-2.1.8-1.7-1-2.1-2.4.1-1.8-1.8-2.3-1.8-2 .3-1.2 4.6-3.3 2.8.6 2.3 3.1.4.8 2.4 2.8-.3 1.1-2.1 1.3.4 1.3 3.2-.4 3.3-1 2.4-4 1.4-.6 2.8 2 .6v4.7l-2.6 3.3-3.4.5-.3 1.1-3.4-.5-.8 1.1-2.3.1-.7-.7-2.3-.7-2.9 4-.4 3.2 1.8 1.8v1.4l-3.3.4-.8-3.7-4-3.8 2.5-2.5v-3.7l-2.1-2.1-2.4-2.4-.7-2.2.4-1.9-1.1-1.1.3-2.7-2.9 1.1-3.4.4-1.7 3.1-4.6 1-2.1 2.9-3.3-3.9-2.7-1.3-2.5 1.1-1.3.7-2.8-.5-2.7.4.3 3.5-1.5 1.5-1.6 2.9-1.9-.5-.1-4-1.9-1.4-1.4-.4-.3-2.4-3.1-2.3-.6-2.6-3.6-.4-1.4 1.4-1.9-2.9H880l-1.8-1.8-.7-6.7 1.6-2.9-2-3 2.3-2.7.1-2.3 2.8-2.6.4-4.8 3-3.4-.1-2.2-3.4-3.4 1.3-1.8 2.9.1 5.4-2 1.2-4.1-3.1-2.1-.9-5.1-2.9-2.9-3.1.3-1.8 3.1-1.7 1.7-3.2.6-.9 2.6.7 3.1-1.1 1.1-3.2 1.2-1.6 2.2-1.5 2.3-2.1-.1-2 1.8-4.6-6.3-2.6.9-1.4 1.3-4.1-.6-2.1-2.6 1.2-2.8 2-1.1v-2.3l-1.8-3 .9-2.3 1.1.1v-5.1l2.1-2.9-.1-2.3 1.1-2.9-3-1.7-3 .6-2.3 2.3-2.7.4-1.9 2.4-2.1 1.1-1-.4zM72.6 502.4l-1.3-1.7-1.8-.8-1.8-2.8-1.4-1.4 2.3-1.8-.5-2.6 1.8-.6-1.3-1.3-4.5-4.8-1.9 1.1-1.8-1.8.2-1.7.6-2.2-2.3-1-1.5 1.5-2-1.8-1.8-1.3-2-.3-.7 2.2 1.3 2.5-.5 4.2-2.5-.8h-2l-3.8.2-2.8 1.2-1.2 2.5-2.5-.8-2.7-3.3-2 .3-1.8 1.8.8 3.3-1 3 1.3 2.7 2 1.8-.3 5 1.7 2.5 1.3 2.8.7 5.7-.5 7.7 1.3 4 2.2-.3 1.7 2.3 1.3 1.7 1.8.3 2-2 2.4-.4 1.7-1.7h1.7l.9 2 1.4 2.1H58l2.5-3.1.9-1.8-.6-2.4 1.8-.5 2.8-2.1-1.6-1.6 1.4-2.2-1-2-1.3-1.1 1.4-2v-2l1.3-1.4 1.3.4.9 1.4 2.3-.3 1.5-1.5-.3-3.4 1.3-1.6zm-17.3 9.2v3.7l-.9 1.8-.7-2.2-1.6.7-1.5 1.5-1.8 2.5-1.8 1.8-1.2 1v1.3l-1.8.3-.8.8-.9-1.8-2.6-3.1 1.5-1.5 1.3.6h3.6l.4-1.3-.6-1.6v-2.8h1.6l1-1.9 1.8.1 1.1-1.1-1-2.3-1.8-1.1-.5.6h-1.7l-1.2-1.3-1.4-1.4-.9-.9-.8-1.5v-1.6l1-.4 1.2 1.2.8.8 1 1.6 2.1.6.9-.4 2.1.7.5 1.8 1.5.8 1 1 1.1.8v2.2z"/><path d="M76.8 550.5l.7-1.3-1.9-1.3-1.2-1.3-2.3.5-3.1-3-.6-2-2.6-.5-2.6-.9.8-1.8-.7-1.7-1.4-1.3.9-1.5h2.9l-.9-1.4-.5-2.1-1.8-1.2v-2.6l-2-.7.9-1.8-.6-2.4 1.7-.5 2.8-2.1-1.7-1.6 1.4-2.2-1-2-1.2-1.1 1.3-2v-2l1.3-1.4 1.3.4.9 1.4 2.3-.3 1.4-1.5h1.9l1.2 1.3 1.9 1 .7 2.1h1.7l1.4-.5.7 2.2 1.4 1.4 2.9-.6 1.9.8.3 2.5 1.6 1.8.5 2.1L91 523l1.1 3-1.2 2.2 1.3 2.3 1.7 1.7 1.3 1.8v2l1.8 1.7.4 2.6 1.4 2.1v3.8l-2.6 1.7-2.5.8-2.2-.7-1.3 1.2.8 1.4-1.2 1.1h-2v1.4l1.7.9-1 2.6h-2.7l-1.3-1.2v-1.2l-1.2.1-1.2 1.7-1.4.2-.7-2.8-3.2-2.9z"/><path d="M91.1 559.4l1.7 2.3 3.4.3.3 3.8-1.7.6-3.1 1.7-2.9 3.5-1 3.9-2.8-1.6-1.7 1.3-2.8-.2-1.8 1.4-2.9.4 1-2.8-2.5-2.7 2.6-1.8 1.9-3.2 1.6-3.4.7-2.6-2.7-2-1.1-2.2 3.4.1 1.6-.6 1-1.3 1.2-.1v1.2l1.3 1.2h2.7l2.6 2.8zm-35.8-15.1l2-.8 2-2 1.6.2 2.3-1 2.6.9 2.6.5.6 2 3.1 3 2.3-.5 1.2 1.3 1.9 1.3-.7 1.3-1.3 1.1v2l-1.2 1.2-3 .2-1 1-1.5-1.4h-2.3l-1.5.9-1.4-.3-2.3.8-2.3-2.2.7-3.3-2.9-2.4-1.5-3.8zm76.6-88.8l-.2 2.9 1 4 3.8.4 2.2 1.2v2l3.3-.1 4 3.8.5 4.6-3.1 2.9 2.2 2.1 1.3-1.2 2.3.9.7 3.3 1.6 1.6h2.4l.4 2.5 2.1 2 .1 3.4-1.2 2.7-2.1 1.5h-3.3l-2.6 2.6-2.1 2.2v3l-2.9 1.2-3-.2-2.1 2.2-1.2-3.5-1.9-1.9-2.4 1.5-3.4-.1-1.7-1.7-4 1-1.1 3-3-.7-1.8-1.7v-2.1l-1.6-.6-1.2 3.3-1.7.7-1.7-1.7-2 .8-1.8-1.8-3 2.7-3.6-3.4-.8-3 1-2.8v-3l-3.7-2.7 2.1-2.1v-2.1l2.8-1.1 2.2 2.2 3.5-.6 2.3-4.5-1.5-6 4-3.9 1.3-3.6-2.3-3.6-.2-2.2 3.9-3.9 1.2-4h4.8l2.3-2.1 2.4.5.6 1.8 2.6 1.4h3.3z"/><path d="M103.7 507.8v-3.6l-3.6-3.4-.8-3 1-2.8v-3l-3.7-2.7 2.1-2.1v-2.1l2.8-1.1 2.2 2.2 3.5-.6 2.3-4.5-1.5-6 4-3.9 1.3-3.6-2.3-3.6-.2-2.2h-4.3l-1.5 1.5h-2.3l-1.2-1.6h-2.9v-2.1l-1.3-1.3L96 460l-1.2 2.8-6.1.8.1 2.7-2.3-.3-2.3 2.3.6 3.7-2.5 1.5-3.6 3.6-4-4.3L72 470l-2.8 1.1-3.2-1.3-3.7 1.7-2.5 2.6 2 .7 1.9 1.8 2.8.7 2 1.5-.7 3-2.8-1.2-3.8-.5-.6 2.2-.2 1.7 1.8 1.8 1.9-1.2 5.8 6.1-1.8.6.5 2.6-2.3 1.8 1.4 1.3 1.8 2.9 1.8.8 1.3 1.7-1.5 1.6.2 3.3h1.9l1.2 1.3 2.1-1.7 1.6 1.2h3.1l1.2-1.2v-1.7h1.9l.9 2.4v2.2l1.6 1.6 2 .5.6 2.9.6 2.1 1.3 1.3 1.8.7.8-.8 2 .5 3.5-3.7h3.8l3.4-2.5 1.7-3.3v-2.5l-2.5 1.3-2.1-.1zm33.5-.8l-1.2-3.5-1.9-1.9-2.4 1.6-3.4-.1-1.7-1.7-3.9 1-1.2 3 1 3.3 1.9 1.3-1 5.3.3 3.2 1.6 2.1 3.7.1-.9 4.1-1.9 1.1-1.2 4.1 1.7 1.7-1.1 2.7-3.5-.3-.3 2.1h-1.2l-.3-1.3-1.9-.8-1.3 1.3 1.2 1.6v2l1.1 1.1v1.6l-5.4 3.8.5 1.3 2.3.1 1.8 1.3 3 .5 1.2 1.2 2.5.7 1.3 1.3 3.6-.3h5.6l2.8-.3 1.7-1.7-2.1-2.1-1.4-2.9-.3-3 2.5.3 1.7 1.8 1.8-1.8v-4.6l-.9-5.7.8-4.3-2-2-3.2-3-2.2-1.3 2.2-2.2 1-4.3-2.4-2.4-1.1-3.3 2.5-1.8zm-44-111h-1.8l-1.8 1.8.9 1.4 1.8.7 1.2 1v2.7l1.9.5.5 1.6 1.8.8.5 3.7 1.8 3.1.6 3.8 1.8.4 1.4 1.3 2-1.6h2.1l1.5-1.5-.9-1.7 3.3-2 1-2.3 2.6-.9-1.1-3.7 1.1-1.1-3-2-2.1-4.3-1.2-5.7-3.7-1.5h-2.6l-2.5-.8-1 1-.5 2.1-.9.9-1.4-1.3h-1.8l-1.6.6.5 1.5-.4 1.5z"/><path d="M126.8 408.8l-2.4.2-.8 1.5h-2.5l-.9 1.9h-1.9l-1.7-2.4-1.2-1.2-2.6.9-1 2.3-3.3 2 .9 1.7-1.5 1.5h-2.1l-2 1.6v2.8l2.1.4 2.3 1.5 2.9.4 1.3 2.6 3 1-.6 3 2 2 2.6.3 2.6 3.5 1.9-1.6h1.9l.5-2.7-1.8-1.8.4-2.4-1-1.3.6-1.8 2.3-.7 2.7-2.8 3.4-2.4-.6-4.4-2.3-2.3-2.1 1.4-1.1-1.7.9-1.7-.9-1.3z"/><path d="M131.7 400.6l-1.3 2.3v2l-1.8 1.3-1.8 2.6-2.4.2-.8 1.5h-2.5l-.9 1.9h-1.9l-1.7-2.4-1.2-1.2-1.2-3.7 1.2-1.6-3-1.6-2.2-4.3-1.2-5.8 2.3-3.2 1.5.6 1.4-1.4 2.8-.8 1.7.9 1.9 1.9 2.2-.4v-1.9l.9-.9 2.4 1.6 2.5-1.7 1.5 2.4 2.1.4v1.8l-.7 2 .6 2-.8 2.8.4 2.7z"/><path d="M132.9 418.8l-.6-4.4-2.3-2.3-2.1 1.4-1.1-1.7.9-1.7-.9-1.3 1.9-2.6 1.7-1.3v-2l1.3-2.3 2.6-.4.3-1.8 2.1-.4.7.7 3-.2.9-.9 2.6.5 1.5.6 1.8-.4.7-.8 1.9.2h2l1.6 1.3-.6 2 2.5.8.4 2.2 1.8.5 2.1 3.5v3l1.6 1.1 1.1 1.1v1.6l.6 1.5-1.6 1.6-2 .5-1 1.1-1.6 1.5h-1.9v1.3l-1.5 1.5-1.9 1.3-1.6-.7-1.9-2.1-1.6.1-1.9-1.8-1.9 2.1-3-.4-1.1-2.8-3.1-.9-2.4.2z"/><path d="M131.8 450.9l2.4-1.1 1.6-.1 1.6-1.6 2.9-1.6 3.3-2 1-1.7h2.7l.4-5.2-1.4-2.5.6-4.4-.6-2.6 1.6-1.6 1.9-2.1-1.9-2.1-1.6.1-1.9-1.8-1.9 2.1-3-.4-1.1-2.8-3.1-.9-2.4.2-3.4 2.4-2.7 2.8-2.3.7-.6 1.8 1 1.3-.4 2.4 1.8 1.8-.5 2.7h-1.9l-1.9 1.6 1.5 1.4-.9 2.6 2 2 3.2 1.3 1.1 2.1 1.9 1.9 1 3.3zm31.1-34.6l1.8 1.9h3.1l.8 2.3 1.6 1.6v3.2l2.1 2.1.8 2.7 2.7.8 1.3-2.1h4l.8-.9 2.8-.2-.4 2.1 1.2 1.2h1.7l1 2-1.7 2.4.8 1.8-1.4 1.4-.4 2.4-4.3.6-1.6-1.7-2.7 1.9-2.3-.3-2.2-2.2-2.1-2H167l-1 .9-3.4-3V432l-2.6-2.7h-2l-3-1.2-1.5-1.5-1.8.6-.3-2.1 1.9-1.3 1.5-1.5V421h1.9l2.6-2.6 2-.5 1.6-1.6z"/><path d="M149.8 424.4l1.6.7.3 2.1 1.8-.6 1.5 1.5 3 1.2h2l2.6 2.7v3.2l3.4 3 1-.9h3.3l4.3 4.2 2.3.3 1.6 2.4v4.2l-1.6 1.6v2.3l1.3 1.3-.7 1.8-1.2.6-1.6 2.9-2 2.9-1.9-2.4-2.5.7h-2.1l-3.5-1.8-3.8-1.6-2.3-1.6-.8-2.9-3.5.1-2.6-2.3-1.8-.7-1.5-1.5-.3-2-2.5-1.3 1-1.7h2.7l.4-5.2-1.4-2.5.6-4.4-.6-2.6 3.5-3.7z"/><path d="M172.7 461.8l1.3 2.6 2.1 2.2h5.8l2 2 1.6 2.9v3l3.4 1 .9 4.5 3.1 3.1-.6 3.6 2.4 2.4 1.1 1.8-.1 1.9-4.1-.8-2.1 2.1-3.8 1.4-3.4-1.9h-3.5l-1.6 2.5h-7.4l-.8 1.9-2.2 2.1-.3 3.2-4.1-.8-2.4-2.4v-3.3l1.1-3.3-1.8-1.7h-2.8l-.1-3.4-2.1-2-.4-2.5h-2.4l-1.6-1.6-.7-3.3-2.3-.9-1.3 1.2-2.2-2.1 3.1-2.9-.5-4.6-4-3.8-3.3.1v-2l-2.2-1.2-3.8-.4-1-4 .2-2.9 1.3-1.2-1.4-3.4 2.4-1.1 1.6-.1 1.6-1.6 2.9-1.6 3.3-2 2.5 1.3.3 2 1.5 1.5 1.8.7 2.6 2.3 3.5-.1.8 2.9 2.3 1.6 3.8 1.6 3.5 1.8h2.1l2.5-.7 1.9 2.4z"/><path d="M187.3 437.2l4.4 3v2.8l3.4-.8 2.5 1.1 2.6 2.6 2.4 2.1 2.6-1 1.3 1.4.9 3.9 2.4 2.4.9 2.1-2.3 3.5-3.1 1.5-1.5 1.4-2.5-3.4-3.5-1.4-1.6 1.6-3.1-3.4-2.1 2.2-2.9-.7-2.2 2.2v3.7l1.5 1.5-.5 2.6-3 .5-2-2h-5.8l-2.1-2.2-1.3-2.6 2-2.9 1.6-2.9 1.2-.6.7-1.8-1.3-1.3V450l1.6-1.6v-4.2l-1.6-2.4 2.7-1.9 1.6 1.7 4.3-.6.4-2.4 1.4-1.4z"/><path d="M224.1 467.6l-1.2-2.7.8-2.2-4.1-3.5h-2.7l-1.9 1.9-4.3-4.3-2.3 3.5-3.1 1.5-1.5 1.4-2.5-3.4-3.5-1.4-1.6 1.6-3.1-3.4-2.1 2.2-2.9-.7-2.2 2.2v3.7l1.5 1.5-.5 2.6-3 .5 1.6 2.9v3l3.4 1 .9 4.5 3.1 3.1-.6 3.6 2.4 2.4 1.1 1.8h5.9l1.7-3.5 3.2-2.3 1.9.5 1-2.2 4.5-.8 2.3-5.3 3.8-2.1 2.9-2.9 1.1-4.7zm84.5 11.9l4.4-2.9 2.6 1.1h2.1l2.5 1.1 1.8-.7 2.3 3.9 3.9-3h3.6l1.3 1.7-1.9 3.5 2.9 4.1 2 .7v3.7l2.6.5 1.9 1.9h2.9l1 2.2 2.3.3-.6 3.1 6.6 4.1.5 5-2 2.8h-4.1l-3.7 1-3-1.6-3.7.6h-4.5l-4.3-2.2h-1.7l-2 1.9-3.3.7-3.2-1.7H315l-3.8-1.2-5.7.2.9-2.4 2.4-2.5-1.3-3.3h-3.3l-.5-1.5-2.1-.1-1.9-1.9.6-2.3h2.2l1.6-1.6-1-3.2 1.7-1.6h2.8l1.6-2.5-.5-4.2-.1-3.7zm-22.1-10.3l-2.1 2.2-2-2.9H280l-3.9-2.8-2.1-3-1.9.8-2.1-.7-1.3-4.5-2.8-.5-1.4-3.1h-3.4l-3.5-2.7v-2l-2-.8-1.8 1.8-6.5 1.8-1 1.1 1.4 2.2v2.2l-3.5 2.6h-2.5l-1.9.9-1-1-1.8.9.6 2.3v1.4l1.1 1.2-1.3 1.3-2.1 2.1h-1.9l-.6 1.6-1.2 1.9-2 .8.8 1.5-.1 4.3 1.2 1.3-.9 4.6 1.9 1.2 2.2 2.2 1.4 3.7v3.6l1.1 2.3-.9 2.3v3.2l-.7 1.6 1.9 1.1 1.8-1.7h2.8l1 1.8-1 2.5-2.7 1.1.6 1.3 1.8.4-.5 3.3-1.1 1.1.6 2.5h1.6l.3 1.5 2 2 2-1 1.5-1.5 1.7.9.7 1.7 1.7 1.3 2.2.6 2.1-1.7 1.4-3.3 1-1.7 2.6-1.2.5-2.5 2.2-4.1h1.8v-2.9l2.2-2.9v-1.9l3.4-3.4 2.6-.9v-1.2l2.8-.2 1.2 1.6h1.9v-3.2l-1.1-3.7-4.1-1.3-1.8 1.2-4.1-.4-2.1-3.4-.5-4.5-1.6-1.6-.7-3.2 3.6-2.7 2.5.8 2.8 1.3 1.8 1.9v2.3l3.5 1.2 2.2-2.2 3.8-.9v-2l2-3.7.8-2.6-.7-2.8zM166.6 350v-3.3l.9-2.8-2.4-.8-2.7.6-3.5-1.7 1.2-1.2.5-2.4-2.2-3.5-2.4-.8 1.8-3.6 1.8-1.8 3.2.5 1-1.5 2.1-.6 2.2-2.7.9-2.3 1.5-2.8 3.8-2.1 2.5-3.6 1.8 1 3.1-1.6 2.7-1 2.8.5 2.4 1.1 2.7-.6 2.2 1.4.2 1.5 2.3 2.6-2.5 5 .3 1.6-1.3 1.3.9 4.6 1.9 1.2v2.1l2.6 1.3.7 1.7 1.1.7 1.5 1.5h1.7l1.4 1.4.6 1.9 3.4.2 2.5.6 1.1 1.1 2.1.6.8 2.1 2 1.9 1.3 1v1.7l1.4.5h2.8v-1.1l1.4.4h1.8v2.2l1.1 1.1h1v1.4l2 1 1.2 1.2 1.8-1.7.5-1.5 1.8.8 1.3 2.2-1.4 1.4 1.9 1.1v1h1.4l1.8.7-.8.8 2.1 2.7-3.7 3.6-2.2 2.3-3.2-1.4-1.7 1.6 3.6 3.8-2.3 1.2v3l-1.1 1.1-3.9-3.4-2 3.2-3.7-.9-1.5 1.6-2.3-3.3-3.3-1.9-2.8-1.3-1.2-3.3-3.3-3.2-4.3-.8-2.2-4.7-3.4 1.6-3.6-1.6-4.1 1-3.7 1.6-3.9-3.9v-6.6l-3.1-3.2-1.7 1.7-4.1-2.9-1.8-1.8-3 .3-2.1.4z"/><path d="M163.4 351.4l3.2-1.4 2.1-.4 3-.3 1.8 1.8 4.1 2.9 1.7-1.7 3.1 3.2v6.6l3.9 3.9v2.9l-4.3.2-1.1 2.3h-2.2l-3.2 3.4h-2l-.9 2.3-3.4-.7-1.6-1.6h-3.8l-2.3 2.3h-2.8l-1.4 1.4-1.9-2-1.9-1.4-.3-1.7-.5-2 1.2-1.4 1.9-1.9 3.3-2-1.2-2.7v-1.6l1.8-1.9-.8-2.9 1-2.1h2.4l1.1-3.5z"/><path d="M229.6 383.7l2-2.3-3.9-3.4-2 3.2-3.7-.9-1.5 1.6-2.3-3.3-6.1-3.2-1.2-3.3-3.3-3.2-4.3-.8-2.2-4.7-3.4 1.6-3.6-1.6-4.1 1-3.7 1.6v2.9l-4.3.2-1.1 2.3h-2.2l-3.2 3.4h-2l-.9 2.3 2.2 2.2h2.9l1.5 1.5 2.3-2.4 1.3.3 1.1 3.1 3.6 2.3h2.2v3.8l3.2 1.6v3.1l4 .9 5.1-1.3 1.9-1.9h2.9l1.2 2.8 1.8 1.8h3.1l1.2 1.1 2.6-2.6 4-1.4 1.7 1.7 2-2.1h4.6l.6-7.9z"/><path d="M161.5 377.1l2.3-2.3h3.8l1.6 1.6 3.4.7 2.2 2.2h2.9l1.5 1.5 2.3-2.4 1.3.3 1.1 3.1 3.6 2.3h2.2v3.8l3.2 1.6v3.1h-3.3l-1.4 3.4h-3.3l-2.4-2.4-1.9 1.9-.8 3.5-2.2 2.2-4.3.5-3.6 1.1 1.4-5.2 1.8-4.4-4.4-4.4-2.5-2.5-4.2-1.4v-2.4l1.4-2.6-1.7-2.8z"/><path d="M157.3 378.5l1.4-1.4h2.8l1.7 2.8-1.4 2.6v2.4l4.2 1.4 2.5 2.5 4.4 4.4-1.8 4.4-1.4 5.2-3.4.6-2 2.1-2.8.6-1.9 1.9-2.1-3.5-1.8-.5-.4-2.2-2.5-.8.6-2-1.6-1.3v-2.4l1.1-.5.5-1.7.2-3.1-1.3-1.3-1.6-.7-.8-1.6v-2.1l-1.5-.7-.8-2.2 1.8-1.4-.1-2.2 1.4-1.4.6-2.1 1.9-.9.3 1.7 1.9 1.4 1.9 2z"/><path d="M159.6 411v-3l1.9-1.9 2.8-.6 2-2.1 3.4-.6 3.6-1.1 4.3-.5 2.2-2.2.8-3.5 1.9-1.9 2.4 2.4h3.3l1.4-3.4h3.3l4 .9 5.1-1.3 1.9-1.9h2.9l1.2 2.8 1.8 1.8h3.1l1.2 1.1 3.5 2.6 4.3 4.3-2.6 2.7-2 2-3.6-2.1-2.8.6-2 1.9-2.4 3.5-4.5-2.8-2.1 2.1-3.5-.1.3 3.7-1.7 1.7 1.6 3-4.8 2.8v4l-3.1 2.7-1.5 2.4h-1.7l-1.2-1.2.4-2.1-2.8.2-.8.9h-4l-1.3 2.1-2.7-.8-.8-2.7-2.1-2.1v-3.2l-1.6-1.6-.8-2.3h-3.1l-1.8-1.9-.6-1.5v-1.6l-2.7-2.2z"/><path d="M188.2 433l-1-2 1.5-2.4 3.1-2.7v-4l4.8-2.8 2.9 1.4h6.1l.5 3.1 1.9 1.9-.9 2.6 1.9 3.5-4.1 1.1-3.8 2.2v4.1l-3.2 1.1-2.9-1.1-3.3 1.2-4.4-3-.8-1.8 1.7-2.4zm18.3-21.5l2.4-3.5 2-1.9 2.8-.6 3.6 2.1 4.6-4.7-4.3-4.3-3.5-2.6 2.6-2.6 4-1.4 1.7 1.7 2-2.1h4.6l.6-7.9 2-2.3 1.1-1.1v-3l2.3-1.2-3.6-3.8 1.7-1.6 3.2 1.4 5.9-5.9 1.8-1.6 1.3.4 3.1 3.8-.6 1.8 1.5.8.3 2.5-2 2.1v3.3l-3.2.7v2.2l-2.2 2.2v2.5l1.7 1.8v2.5l.8 2.6-1.1 2.3 1.2 1.2 1.9-2.3 1.2-3.4 2.9-.7 3.1 1.4 1.9 1.9 2.6-2.5 1.4 1.4.8 1.9 2.5-.3 1.5-1.6h2.7l1.6 1.6 3 1.4 2.2 2.3 1.9 1.5-.5 2.9-2.8 2.4-2.6 1-3 3v2.7l1.7 1.7-.9 2.7v2.8l-3.6 2.3h-3l-.1-3.4-3.4.2-3.9-3.8-3.1 2.2-1.9 3.2-.9 2.9-2.1 2.1h-2.8l-1.7-1.6-3 3.2v4.8l-2.8 2.8-2 2-1.5 3.8-2.8-3.2-.9-4.1v-2.6l-.8-2.5v-5.3l-2.8-1.6-1.2-3.9-3.6-.7-2.8-1.7-1.2 2.1-1.9-1.9-3 1.7-2.7-1.7-1.9-2.9z"/><path d="M199.9 410.8l2.1-2.1 4.5 2.8 1.9 2.9 2.7 1.7 3-1.7 1.9 1.9 1.2-2.1 2.8 1.7 3.6.7 1.2 3.9 2.8 1.6v5.3l.8 2.5-2.9 1.6-2-2h-3.7l-1.5-1.6-3.9 2.3-5.4 1.4-1.9-3.5.9-2.6-1.9-1.9-.5-3.1h-6.1l-2.9-1.4-1.6-3 1.7-1.7-.3-3.7 3.5.1z"/><path d="M246.3 453.9l1.4 2.2v2.2l-3.5 2.6h-2.5l-1.9.9-1-1-1.8.9.6 2.3v1.4l1.1 1.2-3.4 3.4h-1.9l-1.8 3.5-2 .8-1.9-1.9 1.9-2-2.8-2.8h-2.7l-1.2-2.7.8-2.2-4.1-3.5h-2.7l-1.9 1.9-4.3-4.3-.9-2.1-2.4-2.4-.9-3.9-1.3-1.4-2.6 1-5-4.7-2.5-1.1-3.4.8v-2.8l3.3-1.2 2.9 1.1 3.2-1.1v-4.1l3.8-2.2 4.1-1.1 5.4-1.4 3.9-2.3 1.5 1.6h3.7l2 2 2.9-1.6v2.6l.9 4.1 2.8 3.2 3.4.4 1.6 2.2 2.9 1.3 1.1 1.7h2l.3 3.1 2.3 1.7-2.2 1.3.2 1.4 2.6 1z"/><path d="M233.6 436l4.8-4.8v-4.8l3-3.2 1.7 1.6h2.8l2.1-2.1.9-2.9 1.9-3.2 3.1-2.2 3.9 3.8 3.4-.2.1 3.4h3l-.8 3.7-.1 4.2-2.1 3.7-.5 4.1-1.9 4.2-5.5 2.8v1.9l2.2 3.2-1.8 1.8-6.5 1.8-1 1.1-2.6-1-.2-1.4 2.2-1.3-2.3-1.7-.3-3.1h-2l-1.1-1.7-2.9-1.3-1.6-2.2-3.4-.4 1.5-3.8zm159.1-114.5h-1.9l-3.4 2.8-2.9.2-1.3 3.1-4.4-.7-1.2 1.9-1.9 1.9-1.9 1.1-3.8 1.3-3.2.8-3.7-1.9-2 .4-2.3-1.9-4.4-1.8-4.5-2.9-3.3-1.3-5.4-2.1-2.7-2.7-3.2-.3-5.3-3.4-2.6-2.7-4.1-1.8-4-3.4-3.6.4-2.8 1.9-17.3.1-1.8 1.8-1 2.5-1.1 1.2v1.1l-1.2 1.2-1.5 1.5.7 1.4 1.9 1.9.8 1.6-1.1 2.3.5 2.2 1.3 1.3-1.5 2.5-1.5 1.5-1-1h-1.5l-2.1-1.7-2.2-.5-1.7-1.1-2.3.8-1.9 1-.5-2.5-2.6-2.7-2.5-1.4-2.8-.6-1.4-1.4-2-.7-2.3-1.7h-2.1l.4 2.2v2l1.7 2.5 1.8 1.8-.7 2.3v2.4l-2.2 1.4-.7 2.6 1.3 1.2.3 2.6-.4 1.5-2.4-.5-1.9.5-.6 1.6-.8.8.3 1.8-2 1 .3 2.9 1.7.8 1.6.5 1.4 1.5 1.5-2.2 1.1.4.9-2.1 2.2-.5h1.5l1.1 1.1 1.7-.8.1 2.2 1.4 1.5-2 2-1.5.7-2.2 2.2-2.6 1.6-.2 1.5-2 1.2-1.3 1.3 1.8 1.9-1.4 2.4-1.6 1.2-1.5 1.7-1.6-.3-.4-1.4h-2.6l-1.4-.4.1 1.2-2.1.6.3 2.5-2 2.1v3.3l-3.2.7v2.2l-2.2 2.2v2.5l1.7 1.8v2.5l.8 2.6-1.1 2.3 1.2 1.2 1.9-2.3 1.2-3.4 2.9-.7 3.1 1.4 1.9 1.9 2.6-2.5 1.4 1.4.8 1.9 2.5-.3 1.5-1.6h2.7l2.6-1v-2l-1.7-1.7 1.6-3 3.3 1.8 1.2-1.1 1.2 1.1 1.6-1.6 2.2.8.8 1.3-.3 2.2 1.7 2.1 2.1-.8 3.7 1.7 2.3 2.3 2.7-1.3 3 1.1 1.6-1.7 1.7.6 1.2 1.2 1.7-.6 1-2.1h1.8l3.8 2.6 3.8 2 4.2 1.6 5.8.9.9-2.4 1.5-1.5.6-3 4.1-4.1v-2.3l1.4-2.6-.6-2.9 2.2-4.2 3.4-2.1.4-3 4-2.5-.7-3.7 1.5-2.8 3.5-3.5 2.5-2.5 2.2.7v2.6l2.8-.3 3.2-3.2 3.1-1.6 1.7-2 3.2-.5 4.4.2v-3.7l5.3-3 5.3-1.1h5.7l1.2-3.7h3.1l3-3 4-2-2.5-2.6 3-1.2v-2.2l-3.3-1.7.5-3.1 1.3-.6.8-1.9-1.9-1z"/><path d="M267.9 419.1l-3.6 2.3-.8 3.7-.1 4.2-2.1 3.7-.5 4.1-1.9 4.2-5.5 2.8v1.9l2.2 3.2 2 .8v2l3.5 2.7h3.4l1.4 3.1 2.8.5 1.3 4.5 2.1.7 1.9-.8 2.2-2.4 1.3-1.3v-2.9l1.1-2.2 1 1h3.3l2.7-1.4.8-3.1 1.7-2.9h2.3l2 3 1.2-1.3 1.8-1.8-1.3-1.3-.1-1.6 3-2 2.9.6 2-1.7 2.1-2-1.8-1.9v-1.2l1.7-1.7 1.1-3.7-2.1-3.4v-4.3l2.7-2.3h2.9l2.3-2.3 2.5-3.7 3.3-3 1.9-4.7v-3.3l3.4-1.8v-2.6l-5.8-.9-4.2-1.6-3.8-2-3.8-2.6h-1.8l-1 2.1-1.7.6-1.2-1.2-1.7-.6-1.6 1.7-3-1.1-2.7 1.3-2.3-2.3-3.7-1.7-2.1.8-1.7-2.1.3-2.2-.8-1.3-2.2-.8-1.6 1.6-1.2-1.1-1.2 1.1-3.3-1.8-1.6 3 1.7 1.7v2l-2.6 1 1.6 1.6 3 1.4 2.2 2.3 1.9 1.5-.5 2.9-2.8 2.4-2.6 1-3 3v2.7l1.7 1.7-.9 2.7v2.8zm417.6 173l-5.8-.8-2.4-1.5-7.6 1.1h-4.8l-3.9 3.9-4.3 1-4.2 1.2-6-.5-4.1-1.8-2.6-2.6-2.4-5.1-3.1-3-4.3-1.7h-4.2l-4.7 1.2-3.3-3.2h-6.5l-3.8-2.8-1.9 1.9-.2-3.2-1.6-1.6-.6-2.8 1.7-1.8v-2.9l2-2 4.4-4.4 1.1-1.1 1.5-1.5 2.4 1.4-.5 2.2 3.1 1.5 1.9 1.8 4.1 1.2 1.9 1.9 2.1 1.1 2.4 2.4 5.3-1.1 2 2.1 2.5 2.1h2.7v2.4l1.8 3h4.8l.9 3 3.7-2.1h2.8v-4.9l3.8-3.9 4.5-5.3 2.3-5.8 5.9-5.9 6.7-8.1 1-11.9 2.4-7.8-3.6-1.2-1.9-9-1.6-7.3 1.2-2.4 1.8-1.8-2.9-2-2.8-.8-1-4.5 5.3-3.9h2.6v-3.4l2.5-1.1 3.6 1.2 3.8-1.3v-3.3l2.6-1.9 1.4 1.5h4.2l2.5-1.7 1.6 1.6 5.2 1 2.1-2.1 2.3 1.2 3.3-3.3h2.5v-6.5l3-1.5 1.9-3.9 3.1.7 1.5 1.5-3.6 3.4v4.5l3.1 1.6 1.3 4 2 2.4 1.2 4.3 2.9 3.1 2.6-1 3.7 1.8 2.6 2.6 1 2.6-1.5 5.1-3.8 1.1-3.1 3.2-2.4 3.8-1.7 3.9-2.8 2.8-2.1 4.1 1.3 4.1 2.6.8v2l2 2-1.1 4.1-6.4 6.2-3.7 1.7-2.2 2.2-2.9 1.1-.7 4.8-2.3 2.2-2.5 1-1.6 5.7h-2.6l-3.3-.5-4.3 4.3-2.3 1.2-1.9-.8h-1.8l-1.9 1.9v3.1l1.4 1.6-2.2.9v5.9l3-.4 2 2-5.5 5.4.7 3.1h-6.3z"/><path d="M789.5 537.3l1-7.2 1.3-2.8-1.3-5.3-2.3-2.4-2.1-2.1-2.6 2.1-1.8-2.3 1.3-3.3 1.8-5.5 2.6-2.6 5.3-3.1-2.4-4.2-1.1-2.1h-2.9l-.8-3.6-1.4-2.2 2.5-1.5V488h-1.3l-2.3-2.4-1.8-.2.4-4.3-1.1-1.9-1.2-3.2-2.6-1.4-1.9 2.7-2-.8-.2-2.8-1.3-1.3-2-.6-2 2.1-1 2.5-3.5-.9-1-2.1 2-2.5-1.2-1.9-2.3.7-2.9-.7-2-2.1v-2l-2.7-.7v-2.9l-2.5-.9-2.6-3.4-3.7-1.3-.8-3.8-1.7-1.8-2 1.6h-2.1l-1.5-1.6-2.7-.2-2.9 2.9 1.2 1.2-1.3 2.9 1.5 1.5-1.3 3.4 4.8 4.8 2.7-1.1v2.1l1.2 1.1-.6 3.3-2.6 1.6-1.5 2.9-3.8-1-2.5 1.4-3-.3v4.5l3.1 1.6 1.3 4 2 2.4 1.2 4.3 2.9 3.1 2.6-1 3.7 1.8 2.6 2.6 1 2.6-1.5 5.1-3.8 1.1-3.1 3.2-2.4 3.8-1.7 3.9-2.8 2.8-2.1 4.1 1.3 4.1 2.6.8v2l2 2-1.1 4.1-3.9 3.7-2.5 2.5-3.7 1.7-2.2 2.2-2.9 1.1-.7 4.8-2.3 2.2-2.5 1-.8 3.2-.8 2.5h-2.6l-3.3-.5-4.3 4.3-2.3 1.2-1.9-.8h-1.8l-1.9 1.9v3.1l1.4 1.6-2.2.9v5.9l3-.4 2 2-5.5 5.4.7 3.1 2.4 2.4 1.3 2.5 4.5 1.5 5-.7h6.8l4.9-1.5h5.3l2.1-2.1 4.1-4.1 5.3-2.5 3.8-2.6 3-3 1.4-4.9 6-6 4.1-1.8 3.2 1.2 3.5 1.8 4.7-2.7 3.3-2 4.5.9 6.2.5 5.5-2 3.2-3.3 2.3-5.2 3.5-1v-4.7l-1.5-1.5-2.5-4.8 1.8-4.7v-4.5z"/><path d="M737.3 443.6l-1.4-3.8-2.1-.2v-2.4l-2.2-2.4-1.8-1.8h-2.7v2.5l-2.3 2.4-3.7-.6v-2.4l-1.5-1.3v-3l-3.3-.5-3.7-1.7-3.6.4-3.5-.5-2 2.4-1 3.2-2.3 2.4.9 3.2-1.2 3.8-3.1 3.1v5.8l-4.4 3v3.5l-1.9-2.6v-2.9l-2.2-2.2-2.1.9-.5 2.7-5.5 2.1h-2.6l-1 3.1-1.7 2.5-3.6.3-4-4-.4-8.4.5-5v-4.6l.6-4.2v-4.1l-2.9-1.2-2.1-.7-.3-2-.9-2.3-1.9-1.9V422l1.3-1.3.3-3.1-1.8-1.8h-2.4l-2.6-1.3v-2.4l1-1-1.1-1.1-.9-3.7-2.1-3.7-2.5-1.8-2.8.8-2.7.2v-3.2l2.2-.6v-2.2l-2.3-2.3-.9 1.9-1.4 1.4-2-.5-2.2 2.2-2.2.9-1.4 3v3.1l1.2 3.2-1 2.8v2.3l2.9 2.9 1.8 1.8-.8 2.5-1.2 2 2.2 2.1-2.1 2-1.5 1.1v4.4l-1.7 1.1-.7 3-2.9 1.2.7 4-1.2 1.2-.5 3.7.7 3.3 1.7.8 2.8 2.8 1.1-1.2 2.7 1v3l.9 2.5-1.8-.3-1.3 2.3-1 1.9.6 1.6h2.7l1.2 2.6.9 2.4-1.5 1.5-1.5 2.5v2.2l-.9 1.9h-2.4l-2.1-2.1h-2.8l-1.1-1.9-2.6-1.1-.6-1.8-2.1-.5-2.9 1.8-.8 3.3 1.5 3.5-2.2 3.3-3.7 3.6-2.4 3.5-.9 3.6-1.3 3.1 2.4 2.3-2.3 1.6-3.2-2.2-1.6-3.8-2.8-2.7-2.6 1.3-1.1 3.6-4.2 1.5-3.3-.5-3.5.8-.1 5-1.9 1.9v4.7l2.3 2.4 1.6 3.8v2.1l-2.6 1.4-1.2 3H583l-.6 3.1-1.2 2.7 1.8 2.6.1 2.7-1.3 1v3.8l.7 2.2-1.2 2.1.4 2.7-4.8.3v2l-2.1-.3-.8 2 3.1 2 4.8 4.8 2.2 1.3h3l2.5 1.9 3.8.5 3.1 3 2.1 1h3.7l1.5-1.5 3.1 3.1 7-7 2.7 1.7-.8 1.9 3.1 1.5 1.9 1.8 4.1 1.2 1.9 1.9 2.1 1.1 2.4 2.4 5.3-1.1 4.5 4.2h2.7v2.4l1.8 3h4.8l.9 3 3.7-2.1h2.8v-4.9l3.8-3.9 4.5-5.3 2.3-5.8 5.9-5.9 6.7-8.1 1-11.9 2.4-7.8-3.6-1.2-3.5-16.3 1.2-2.4 1.8-1.8-2.9-2-2.8-.8-1-4.5 5.3-3.9h2.6v-3.4l2.5-1.1 3.6 1.2 3.8-1.3v-3.3l2.6-1.9 1.4 1.5h4.2l2.5-1.7 1.6 1.6 5.2 1 2.1-2.1 2.3 1.2 3.3-3.3h2.5v-6.5l3-1.5 1.9-3.9 3.1.7 1.5 1.5-3.6 3.4 3 .3 2.5-1.4 3.8 1 1.5-2.9 2.6-1.6.6-3.3-1.2-1.1v-2.1l-2.7 1.1-4.8-4.8 1.3-3.4-1.5-1.5 1.3-2.9-1.2-1.2 2.9-2.9 2.7.2 1.5 1.6h2.1l2-1.6.6-1.8-4.7-4.7z"/><path d="M737.3 443.6l-1.4-3.8-2.1-.2v-2.4l-2.2-2.4-1.8-1.8h-2.7v2.5l-2.3 2.4-3.7-.6v-2.4l-1.5-1.3v-3l-3.3-.5-3.7-1.7-3.6.4-3.5-.5-2 2.4-1 3.2-2.3 2.4.9 3.2-1.2 3.8-3.1 3.1v5.8l-4.4 3v3.5l-1.9-2.6v-2.9l-2.2-2.2-2.1.9-.5 2.7-5.5 2.1h-2.6l-1 3.1-1.7 2.5-3.6.3-4-4-.4-8.4.5-5v-4.6l.6-4.2v-4.1l-2.9-1.2-2.1-.7-.3-2-.9-2.3-1.9-1.9V422l1.3-1.3.3-3.1-1.8-1.8h-2.4l-2.6-1.3v-2.4l1-1-1.1-1.1-.9-3.7-2.1-3.7-2.5-1.8-2.8.8-2.7.2v-3.2l2.2-.6v-2.2l-2.3-2.3-.9 1.9-1.4 1.4-2-.5-2.2 2.2-2.2.9-1.4 3v3.1l1.2 3.2-1 2.8v2.3l2.9 2.9 1.8 1.8-.8 2.5-1.2 2 2.2 2.1-2.1 2-1.5 1.1v4.4l-1.7 1.1-.7 3-2.9 1.2.7 4-1.2 1.2-.5 3.7.7 3.3 1.7.8 2.8 2.8 1.1-1.2 2.7 1v3l.9 2.5-1.8-.3-1.3 2.3-1 1.9.6 1.6h2.7l1.2 2.6.9 2.4-1.5 1.5-1.5 2.5v2.2l-.9 1.9h-2.4l-2.1-2.1h-2.8l-1.1-1.9-2.6-1.1-.6-1.8-2.1-.5-2.9 1.8-.8 3.3 1.5 3.5-2.2 3.3-3.7 3.6-2.4 3.5-.9 3.6-1.3 3.1 2.4 2.3-2.3 1.6-3.2-2.2-1.6-3.8-2.8-2.7-2.6 1.3-1.1 3.6-4.2 1.5-3.3-.5-3.5.8-.1 5-1.9 1.9v4.7l2.3 2.4 1.6 3.8v2.1l-2.6 1.4-1.2 3H583l-.6 3.1-1.2 2.7 1.8 2.6.1 2.7-1.3 1v3.8l.7 2.2-1.2 2.1.4 2.7-4.8.3v2l-2.1-.3-.8 2 3.1 2 4.8 4.8 2.2 1.3h3l2.5 1.9 3.8.5 3.1 3 2.1 1h3.7l1.5-1.5 3.1 3.1 7-7 2.7 1.7-.8 1.9 3.1 1.5 1.9 1.8 4.1 1.2 1.9 1.9 2.1 1.1 2.4 2.4 5.3-1.1 4.5 4.2h2.7v2.4l1.8 3h4.8l.9 3 3.7-2.1h2.8v-4.9l3.8-3.9 4.5-5.3 2.3-5.8 5.9-5.9 6.7-8.1 1-11.9 2.4-7.8-3.6-1.2-3.5-16.3 1.2-2.4 1.8-1.8-2.9-2-2.8-.8-1-4.5 5.3-3.9h2.6v-3.4l2.5-1.1 3.6 1.2 3.8-1.3v-3.3l2.6-1.9 1.4 1.5h4.2l2.5-1.7 1.6 1.6 5.2 1 2.1-2.1 2.3 1.2 3.3-3.3h2.5v-6.5l3-1.5 1.9-3.9 3.1.7 1.5 1.5-3.6 3.4 3 .3 2.5-1.4 3.8 1 1.5-2.9 2.6-1.6.6-3.3-1.2-1.1v-2.1l-2.7 1.1-4.8-4.8 1.3-3.4-1.5-1.5 1.3-2.9-1.2-1.2 2.9-2.9 2.7.2 1.5 1.6h2.1l2-1.6.6-1.8-4.7-4.7zM366 515.1l-1.5-3h-4.2l-3.3-2-3.7-.3-.5-5-6.6-4.1.6-3.1-2.3-.3-1-2.2h-2.9l-1.9-1.9-2.6-.5V489l-2-.7-2.9-4.1 1.9-3.5 2.2-1.6-.9-3 1.3-1.3-.7-3.6 2.9-2.9 2.5.6 2-2 2.2.9 3.9-1.9v-2.8l-.8-2.2 1-3.2 2.3 1.8h3.5l2.6-.8v-2.2l1.3-1.3 4.6 1.3 1.9-1.9h5l1.4-1.4 2.7-1 2.8-1 1.3-1.3-.2-2.7h1.9l2.2 1.9 2 1 2.3 2.3h2.5l3.2.8 2.6 2.7 1.9 3.3 2.3 3.7v3l3.3.5v2.8l1.7 1.7 2.8 1 1.7 1.6h3l2.1 1.9h2.7l-1.5 2.1-2.7 2.7-3.3 1.5h-4l-2.5-.7-2.8-1.5-1.8 1.6h-2.7l-2.2-1.4-1.8-.8-2.9-.9-2.3-.8v-2l1.7-1.6-2.7-2.6-2.5 1.7-1.5 2.5-2 2-.2 2.7 1.1 3.3-2.6 1.3v1.9l2.2 1.1 1.6 1.6.8 1.9 2.5 1.4v2.2l-1.2 1.2-3.2.6-1.8 1.8-2.4 2.4v2.9l-.6 1.7-1.8 1.8-1.4.2v2.3l-1.7 1.7-.9 1.9v2h-3z"/><path d="M331.8 479h-3.6l-3.9 3-2.3-3.9-1.8.7-2.5-1.1h-2.1l-2.6-1.1-4.4 2.9-1.7-1.8-1.8-1.8-2.4-1.3-2.1 2-2.3-2.2-2.2-.3-.6-1.2-3-1-.9-1.7-2.8-1.9-2.3.9-2.1 2.2-2-2.9H280l-3.9-2.8-2.1-3 2.2-2.4 1.3-1.3v-2.9l1.1-2.2 1 1h3.3l2.7-1.4.8-3.1 1.7-2.9h2.3l2 3 1.2-1.3 1.8-1.8-1.3-1.3-.1-1.6 3-2 2.9.6 2-1.7 2.1-2-1.8-1.9v-1.2l1.7-1.7 1.1-3.7-2.1-3.4v-4.3l2.7-2.3h2.9l2.3-2.3 2.5-3.7 3.3-3 1.9-4.7v-3.3l3.4-1.8v-2.6l.9-2.4 1.5-1.5 2.3 1.4v2.1l1.4 1.4 1.5 1 2.2 2.2 3.9 4 2.5 4.5 2 2v4.5l-1.7 2.2.9 5.2-1.1 4.2 2.2 2.1v3.4l-2 1.9.7 3.9 2.8 1.4 2 2.4.1 2.7h1.9l2 1.9-1.1 2v3.8l1.9 1.9-1 3.2.8 2.2v2.8l-3.9 1.9-2.2-.9-2 2-2.5-.6-2.9 2.9.7 3.6-1.3 1.3.9 3-2.2 1.6-1.3-1.7z"/><path d="M362.8 352.1l-.3 5.5.7 4.5-1.3 4.1-3.1 3.1 1.6 1.6 2.8 2.8 3.3 3.3 4.5-1 3.5 1.5 3.5-1.5 3.8 2 3.8 3.3-2.9 2.9 2.5 2.8 4.5.8 2.3-2.3 2.5 2.5 1.8-1.8h4.5l4 4 .9 4.5v2.9l3.8 3.8-.8 3.3 1.2 3.3 5.8-.7h2.8l2.5 4h2.8l3.3 3.5 2.8-.7 4.1 1.1 2.7 2.7 1.6-1.6 4.5 1.8-1.2 3.2 3.5 1.8 2.7 2.7h12l1.3-2.3 3-1.7 3.5-2.3 1.3 3.5 3.4 4.4 1.6-1.6 4.8 1.5 2.5 4.2 2.5-.8h2.3l3.5 4.3.1 5.1 4.2 2.8 4.7 2.1-2.5 4.1-6 2.6-3.8 3.8-6.2-4.5-6.6 2.8-1.2 4.1-4.4-2.3-3.2.8-3.8-3.8-4.2 1.6-5.3-.6-1.4-2.2h-5.7l-4-1.7-5.3.8-2 3.9-1.9 4.8.3 5.2-5.5 1.5-4.5 3.3-.5 3.5-4.7 2.8h-2.8l-2.1-1.9h-3l-1.6-1.6-2.8-.9-1.7-1.7v-2.9l-3.4-.5v-3l-2.3-3.6-1.9-3.4-2.6-2.6-3.3-.9h-2.5l-2.3-2.3-4.3-2.9h-1.9l.2 2.7-1.3 1.3-5.4 1.9-1.4 1.4h-5l-1.9 1.9-4.6-1.3-1.3 1.3v2.3l-2.6.8H351l-2.3-1.8-1.9-1.9V452l1-1.9-1.9-1.9H344l-.1-2.7-1.9-2.4-2.8-1.5-.7-3.8 2-2v-3.3l-2.2-2.2.9-3.4-.7-5.9 1.7-2.2v-4.5l-2-2-2.4-4.5-3.9-3.9-2.2-2.2-2.8-2.4V397l-2.3-1.5.6-2.9 4.1-4.1v-2.3l1.4-2.6-.6-2.9 2.3-4.3 3.4-2.1.4-3 4-2.5-.6-3.6 1.5-2.9 3.4-3.4 2.6-2.6 2.1.8v2.6l2.9-.4 3.1-3.1 3.1-1.6 1.8-2 2.7-.5zm224.6-150.8l-.6.9 1.4.9.6-1.1-1.4-.7zm-6.5-13.5l-1.5.9 2.1 1.1 1.5 1 1.7-.4-.5-2-1.6.4-1.7-1zm-14.8-7.4v-2.1l.1-3.8-1-2.1-1.5.1-2.1 2.6.1 2.3-.9 1.5.6 4.1-1.8 1.8.1 4-.9 3.5-.7 3.5 1.3.8 2.9-2.3 1.7-1.1 3.8-1.9 3-.3 3.8-2.9 1.8-3.5-1.2-3-1.4-2.3-1.8.8-1.8-3.2-1.4-1.4-1.6 2-1.1 2.9zm-13.6-16.2l-1.4 1.7-1.2 2.3-1.1-.5.8-2.9v-3l-3.3 1.1-2.4.6-2.7.9-1.1 2.3-.6 2-1.4 1.7.5 2-2.6 2 1.2 1.1 1.8-.6 1.5 2.1.2 2 1.4 1.7 3.5.3.5 2 2.4-1.5 1.2 2 3.3 1.2 3.2-1.5 1.5-2.1-1.2-2.4-2-2.7 1.5-1.1.6-2.6-.8-2.9.3-2.9-3.6-2.3zm-2.7 46.3l-1.6 1.8-1.9.4 1.8 1.4 1.8-1.8-.1-1.8zm-25.3-.6l-.8 1.2 1.1.9 1.4-2-1.7-.1zm-15.6 41.4l-1.8.9.8 2 1.4-.6-.4-2.3zm-13-13.6l-1.7 1.4 1 1.8 1.5-.3-.8-2.9zm-.6 19.8l-.3 1.7h2.6l1.3 1.3.2-2.2-1.5-.3-2.3-.5zm-8.8-89.7l-.9.9 1.1.6 1.6 1.2.5-1.5-2.3-1.2zm-9.2 105.4l-1.1 1.4.7 1.8 1 1.4 1.5-1.7.6-1.9-1.3-1.4-1.4.4zm22-125l-1.3.3-.8.8 1.2 1.3 1.7-.6 1-1-1.8-.8zm28.6-2.5l-1.1 1.2.8.8 1 1 1.9-1.8v-1.3l-2.6.1zm12-1.6l-.4 2.5-2.2 1-3.4 2.3v3.1l1.4 1.4-1.9 1.8-1.1 2.3 1.6 2.2.6 2.3 2.9 2.5 2.6-2.5h1.8l2.6-1.5 3.1-1-.9-3v-3.8l1.9-1.6-1.6-1.5-3.1-3.2-1.2-2.5-2.7-.8zm-7.4 20.8l-2.1-.3.4 2.8v1.7l2.7.8 1.1 1.1 1.7-1.7 1-2.4-1.7-1.3-3.1-.7zm-33.4 64l-.8.8 1.1.9 1.7-.5-2-1.2z"/><path d="M611.8 320.4l.9 2.2 1.3 2.9 2.9 2 .3 5.5 2.9 5.3v2.2l.7 4.2.9 6.5-2.5.7-1.7 2.7-1.6 1.6.9 2.8.9-.9 3.1 1.3v2.7l1.1 1.1-1.1 1v2.9l2.9 1.6.9 4.6 3.4 3.4-1.1 3.2-2 3.1.8 2.5v2.2l-1 1v3.3l1.8.8h2.7l1.4-1.4h1.6l1.5 1.8 3-1.1 2.3 1 1.8-1.8 2.4.2.1 2-.9 1.9-1.4 1.4-2-.5-2.2 2.2-2.3.8-1.3 3v3.1l1.2 3.3-1 2.8v2.4l2.9 2.9 1.8 1.8-.8 2.4-1.2 2 2.1 2.1-2 2-1.5 1.1v4.4l-1.8 1.1-.7 3-2.9 1.2.8 4-1.3 1.3-.5 3.7.8 3.3 1.7.8 2.8 2.8 1.1-1.1 2.7 1v2.9l.9 2.5-1.8-.3-1.3 2.3-1 1.9.6 1.6h2.7l1.3 2.7.9 2.4-1.5 1.5-1.6 2.5v2.2l-.8 1.9h-2.5l-2-2h-2.8l-1.1-1.9-2.6-1.2-.6-1.8-2.2-.5-2.9 1.8-.7 3.3 1.5 3.4-2.3 3.3-3.6 3.6-2.5 3.5-.9 3.6-1.3 3.1 2.3 2.3-2.3 1.6-3.2-2.2-1.6-3.8-2.8-2.8-2.6 1.3-1.1 3.6-4.2 1.5-3.3-.6-3.5.9-.1 5-2 2v4.7l2.3 2.3 1.6 3.8v2.2l-2.6 1.3-1.2 3h-2l-.7 3.1-1.1 2.7 1.8 2.7.1 2.7-1.3.9v3.9l.7 2.2-1.1 2.1.4 2.7-4.8.3v2.1l-2.1-.4-.8 2.1 3.1 2 4.7 4.7 2.2 1.3-.9 2.1-1.8-.7-1.4 1.4-3.7-.2-3.2 3.2-4.4-.8-1.6 1.6-1 6-3.9 1v2.8l-2.5 2.5v4.3l-3.5 1-4.9 4.3-3.5 1.5h-2.6l-3.4-1.8H538l-3.9-1.4-2.9-2.9 1.2-1.7 1.5-3.7 3-1.3 2.7-2.7-.4-3.4 2.7-2.7 1-3.4-1-2.7v-3.2l-3.5-3.5-1.1-4-3.4-3.4 1.1-4.5-1-2-3.2 1.1-4.9-.5-1.5 1.5-3.3-.6-3.2-3.4-1.9-3.2 3-3 2-.8-.2-4.8-1.8-3.4-2.3-.8-1.3-1.2-.5-2.7.8-3.5v-5l2.2-3.8 3.7-1.8-.5-3.8-4.5-1.5h-2.8l-.8-2.7-2.5-4 1.6-4.3 5.4-5.8-1.7-1.7-4.8.3-1-3.8-3.2-3.2-2-3-4-1h-5.3l-4.5 1.2-3.7-1.2-1-3.3 3-3-3.2-6.8 3.8-3.8 6-2.6 2.5-4.1-4.7-2.1-4.2-2.8-.1-5.1 3.9-3.9 1.4-1.4.3-3.8 2.4-2.4v-4.2l-2.5-3.5 1.7-3.2 2.4-3.1 2.3-2.3-1.2-2.7.7-3.5-.7-4-1.9 1.9-1.9-1.9-3.8-.8-.8-3.5 1.7-1.7-.3-3.8-1.5-3-2-2h-2l-1.8-3.3 1.5-1.2v-3l-1.2-2v-1.7l2.3-2.1-1.4-2.9-3.7-2.2v-2.3l-1.5-1.5 1.4-2.5-.5-3-1.6-1.6.1-2.7 2.3.5.6-2 1.8-1.8 1.1-3.2-1.3-2.5h1.3l.9-2.4-1.6-3.8v-2.6l-2.6-.5.1-3.3-2 1.9-1-1-2 1.8-1.1-1.1-.4-2.2-3.2-.5-2.1-2.1-.5-1.8-1.5-1.5-.2-3.1 3-2.3 2.5-2.5 1.3-2h3.3v-5.8l.3-4-3.6-2-1.1-2.1-.7.9-1-2.2 2.3-2.3 3.2-.5-.3-1.8 1.6-1.6-.6-2.2-2.3-1.3-2.1-.4-1.4-1.4-.7-1.8H472l-.2-2 3.3.7 2.8-.4 2.3 2.3 4.3 2.3-1.2 3.3 1.1 1.1 2.9 2.9h4.5l.7-2.7-1.8-2.5.2-2.3-3.2-1.2-2.3-3.8-1.3-1.3 1-4 1.5-3.3-1.3-1.3-.8-4.2 3.3-3h7.8l4 1.5v-1h6.5l4.3-1.8h3.2l1.7-1.7-1.7-2.5-2-.7-1.7-1.7 1.9-1.9 1.3 1.3 2-.5-1.3-1.5.9-2.1-1.4-1.4 1.7-2.3 2.3-1.8-2.3-.2-.2-2.5 4.7.2 1.8-3.8 4.6-1.8 1.8-1.8 6.3-.9 1.6-1.6 4.5-1.3 1-1.2-3-1 1.7-1.7 4.3-1 3.7-.5.8-1.8 3-.5-1.6 3v2.4l2.1-2.1 5.2.2.5-2.7 3.3-.7 3.3.7-1.5-2-2-1.5-1-1.8h3.7l3.8-1.2h1.2l-.3-2.8-1.3-1v-4l.8-2.7 2.5-6.2 3-2.2 2.7-2.8 3.3 2 2.5-.3.8 3.4-2.6 2.6-2.2 2.8 5.3.3 1-1h3.3l2.4 2.4-2.2 2.2.8 2.2 3.7 1.2.8-2.8-1.5-1.5 3.7-2h3.3l3.4-2.4 1.9 1.9 2.6-1.3 1.9 1.9 1.7 3.3 2 1.7 1.2-1.3 1.8 1.8 2.3 2.3-.3 3.5-3.3-.7 1.3 1.3 3.3 1.8 2.1 3.6-1.9 1.9v3.3l-1.7 2.3-1.6 3.3-1.9 1.9-3.3 4v1.7l-1 4.7-2.5 2.5-1 5.2-4 1-1.3 3.8-2.8 2.8-.7 4.3-.8 3 3-1.3-.7-3.3 3-1.8 4.2-.8 2-3 2.8-2.3 2.7-1 1.6-3.1-1.3-1.3-2-.2.2-1.3-.2-2.7 2.5-.2h2l.4 2.9 1.3 1.1-.3 1.6-1.1 1.2.8 1.9 1.5 2.2 1.4 1.4-.6 3.3 1.2 2.5 3.4 1.3v1.8l4.5 3.3 2.1 2.1v4.1l2.4 4.5h2.6l.3 3.4h-1.4l-.7 2.3-3.2 3.2-2.8 1.9.1 3.4v2.6l-2.5.9-.9 3.3 1.9 1.9v2.8l-1 2.3-3.4-1-2.5.8-3.6 5.1-3.5 1.4-.2 1.3"/><path d="M486.4 455.4l1.9 3.9 1.4 2.8-3 3 1 3.4 3.6 1.1 4.5-1.1h5.4l4 1 2 3 3.1 3.1 1 3.9 4.9-.4 1.6 1.7-2.8 3.2-2.6 2.5-1.6 4.3 2.5 4 .9 2.7h2.8l4.5 1.5.5 3.8-3.7 1.8-2.1 3.9v5l-3.2 1.3-3.5 3.5-1.8-1.8-3.7 2-3-1.4h-3.5l-5.7 5H486l-3.4 1.8-4.2-.3-4.3 4.6-1.8-1.8 1.5-1.6-1.3-1.3v-3.1l-.6-4.3-2.1-1-2.4 2.4-4 1H460l-2.9-4h-7.2l-3.3-4.6-2.3-2.2-2.8-2.8-4.5-1.9-3.7-2-4.5-.6h-4.2l-2-2-3.6-.9-1-2.9-1.9-3.7.6-4.2-1.9-2v-3.3l1.8-4.4-.5-1.6 4.7-2.8.6-3.5 4.5-3.3 5.5-1.5-.3-5.2 3.9-8.8 5.4-.8 4 1.8h5.7l1.4 2.1 5.4.6 4.1-1.6 3.9 3.9 3.2-.8 4.4 2.2 1.2-4.1 6.6-2.8 6.1 4.6z"/><path d="M515.8 519.6l-.5-2.6.9-3.5-3.2 1.3-3.5 3.5-1.8-1.8-3.7 2-3-1.4h-3.5l-5.7 5H486l-3.4 1.8.5 5.5 1.2 2.3.8 5-.6 7.2 2.1 3.1 2 3.9h3l2.2 4.1 1.8 1.9.7 3.1 2.6 1.6h2.5l.1 2.3-2.5 1.1 1.4 2.5.4 3.2 1 2.8 3.2 2.9h3.3l2.8 1.5h1.7l.1 3h2.3v-2.8l2.3-2.3 2.9-2.9-1.5-1.5-1.1-2.1.4-1.8 1.2-1.3-1.6-2.1-1.6-1.6 3-4.5v-4.9l1.1-1.1v-2l-3-.5-1.9 1.9-2.3-2.4 3-.8v-3.1l.7-2.6-1.6-3.4-1.2-3.3 2.5-2.2 3-3 2-.8v-4.3l-2-3.9-2.3-.8-1.4-1.2z"/><path d="M516.5 533.6l1.9 3.2 3.1 3.5 3.3.6 1.5-1.5 4.9.5 3.2-1.1 1 2-1.1 4.5 3.4 3.4 1 3.9 3.5 3.5v3.2l1 2.7-1 3.5-2.8 2.7.4 3.4-2.7 2.8-3 1.3-1.5 3.7-1.2 1.7-3.6 1.9v3.7l-3.2 3.2-6.1-1-1.5 1.5h-1.7l-1.7 3.3h-2.7l-3.4-3.5 1.6-1.6-.7-3.2 4.5-4.5h2.3v-2.8l5.2-5.2-1.5-1.5-1.1-2.1.4-1.8 1.2-1.3-1.6-2.1-1.6-1.6 2.7-4.2.3-5.2 1.1-1.1v-2l-3-.5-1.9 1.9-2.3-2.4 3-1.2v-2.7l.7-2.6-1.6-3.4-1.2-3.3 2.5-2.2zM46.1 503.9l-1-1.5-1.9-1.9-.9.4v1.6l.8 1.5 3.5 3.6h1.7l.5-.6 1.8 1.1.9 2.3-1.1 1.1-1.8-.1-1 1.9h-1.5v2.8l.6 1.6-.4 1.3h-3.7l-1.3-.6-1.4 1.5 2.5 3.1 1 1.7.7-.7 1.8-.3v-1.3l1.2-1 1.8-1.8 1.8-2.5 1.5-1.5 1.6-.7.6 2.2.9-1.9v-6l-1.1-.8-1-1-1.5-.8-.5-1.8-2.1-.7-.9.5-2.1-.7zm679.6-349.7l-.3-1.2 2.2 1.1 1.2-1.2 1.6-1.6 2.3-2.3 1.4 1.7h.8l1.9-1.9 1.7-2 3.4-1.5 2.4 1.8-1.4 3.8v2.1l-1.6 1.6-2.5 1.1-2.7 1.1h-2.7l-2.1 2-3.2-1.1-1.7-2.4-.7-1.1zm-5.6 3.2h-4.9l-1.6 1.6-2.4 1.7-1.9-1.8-4.4 1.4.4 2.7 1.1 1.1 1.6 1.7 1.2 1.1-1.7 1.4-2.2-2-1.3 1.2-1.6-1.6-3.8.7-1.7-.9-.7 2 1.2 1.2-2.3 1.2v2.9l1.8 1.8-.4 2.1h1.6l2.2 2.1-.6 2.4 2.7 1.4 3.6.1 1.5 1.6h2.7l3.2-.9v-2.5l-1.9-1.8 1-1 1.6 1.5 2.8-5 2.6-2.7 1.2 1.2 2.4-2.4.8-2.3-2.8-.9-1.8 1.8-2.3-1.7-2.7-1.6-2.7-2 .9-2 1.4-1.4 1.2 3.8 1.7 1.8 3 .5 1.8-.7h1.5l1.5-1.6-.7-3.1h-2.5l.6-2.7v-2l-1.9.6zm2.5 26.6l-1.3 1.2 1 3 1.8 1.8 1.4-2.8v-2.3l-1-1-1.9.1zm6.2 2.7l-1.7 1.8 1 2.3 1.7 1.7-1.1 2.4.9.9 1.4-2.9 3.4-.7 3.1-1.2 4.1-2.5-2.2-3.9h-2.8l-4.1-1.3-1.9 1.7-1.8 1.7zm-34-6.5l-1.3-1.3-2.5-.2 1.6 1.6 1 3.6h2v-2l-.8-1.7zm-75.6 58.9l-2.8 2.8v1.9h2.3l.8 1.8 2-.9 2.2-2.3v-3.6h-2.8l-1.7.3zm98.6-106.5l-.9 1.6 1 1 1.1-1-1.2-1.6zm-8.5 66.1l-2.8-.6-1 .7 1.7.8 2.1 1.7.9-1.3-.9-1.3z"/><path d="M843.2 149.8L840 153v2.3l1.6 1.6h-3.3l-3 2.4-4.2 1.8-4.7-4.7-2.3-2.3-4.6.3-5.5.8-3.2 3.8-3.5 3.5-4.2 6.2v4.8l-3.3 4.2-3.2 3.2-3.5.2-3.2-1.7-4.5 2.5.5 3.8-3.2-3.3-2.3 2.7H777l-1.2-1.8 2.5-3-3-2.2-5 2.2-3.5 1.7-1.5 4.2-.7 2.3 1 5.3v3.2l-2.8 2.7.8-6.5-3.2-1-2.5 2.5-2.8 1.3 1.2-4.5 3.2-2.2-.7-1.7-4.8 2.2-6.2 2.3-1.3 3.8-4.7 2.3h-3.2l-2.2 2.2 3.5 2.2.5 2.3-3.7 3.3v3.5l2 1.3 1.7-4.3 1.2 1v3.7l2.8 1.5 2.5 2.5 1.2.7-2.5 2.5-3.2-.2-1.8 2-1.4 1.4 3.9 1.8v2.5l-3.7-1-3.2.2-4.3 1-2.3 4.3.8 4.3h-4.2l-3.7 1-2.3-2.3-4.2-.5v3l2.2 2.2v2.3l1 2.5 1.7 5.5-.3 3.2-3.8-2-1.5 1.5-3.5-.7-2.5-1.7-3.3-3.3-3.4.1V245l-1.5-1.5-1.8 1.7-2.3-2.2 1.3-1.3 2.2-.7v-3.7l-1.7-1.7-3.2 2v-3.2l-1.9-1.9h-1.9l1.3-4.1-4-1.3-1.2 1.2-3.7-2.8-1.6 1.6-1.1 3.1-1.3 1-1.3-1.5-1.3.3-.7 2-2.7-1.8-1.8-1.8-2.1 1.6-2-2-.5 2-.7 3.8 2.5 3.8.5 3.3v3l-4.5.7-3.5 3-3.5 1.3-2-3.2-.5 1.8-.2 1.3H651l-2.8-2.8 1.2-1.2-1.3-1.9-5 1.5-6.3 1.2-4.2 2.2-3.1 3.1-1.6 1.6 2.3 2.2H628l-2-2.8v-3.3l-1.8-1.8-2.1 2.9-.7 2-3.3-1.3-2.8-.7.4 2.9 1.3 1.1-.3 1.6-1.1 1.2.8 1.9 1.5 2.2 1.4 1.4-.6 3.3 1.2 2.5 3.4 1.3v1.8l4.5 3.3 2.1 2.1v4.1l2.4 4.5h2.6l.3 3.4h-1.4l-.7 2.3-3.2 3.2-2.8 1.9.1 6-2.5.9-.9 3.3 1.9 1.9v2.8l-1 2.3-3.4-1-2.5.8-3.6 5.1-3.5 1.4v1.4l.9 2.2 1.3 2.9 2.9 2 .3 5.5 2.9 5.3v2.2l.7 4.2.9 6.5-2.5.7-1.7 2.7-1.6 1.6.9 2.8.9-.9 3.1 1.3v2.7l1.1 1.1-1.1 1v2.9l2.9 1.6.9 4.6 3.4 3.4-1.1 3.2-2 3.1.8 2.5v2.2l-1 1v3.3l1.8.8h2.7l1.4-1.4h1.6l1.5 1.8 3-1.1 2.3 1 1.8-1.8 2.4.2.1 2 2.3 2.3v2.1l-2.2.6v3.2l2.7-.2 2.8-.8 2.5 1.8 2.1 3.7.9 3.6 1.1 1.1-1 1v2.4l2.6 1.2h2.4l1.8 1.8-.4 3.1-1.3 1.3v2.2l1.9 1.9 1 2.3.3 2 2.1.7 2.9 1.2v4.1l-.6 4.2v4.7l-.5 5 .4 8.3 4 4 3.6-.3 1.7-2.5 1-3.1h2.6l5.5-2.1.5-2.7 2.1-.9 2.2 2.2v2.9l1.9 2.6v-3.4l4.4-3v-5.8l3.1-3.1 1.2-3.7-.9-3.2 2.3-2.3 1-3.3 2-2.4 3.5.5 3.5-.4 3.7 1.8 3.2.4v3l1.6 1.4v2.4l3.6.5 2.3-2.3V433h2.7l1.8 1.8 2.2 2.4v2.4l2.1.2 1.4 3.7 2.2 2.2 2.6 2.6-.6 1.8 1.7 1.7.8 3.8 3.6 1.4 2.6 3.4 2.5.8v2.9l2.7.7 2.9-2.9 3.2-2.7h3.2l1.5-1.5 1.8 1.8 2.5.5 1.1-1.1h3.3l1.4 1.8h2.1l.6-2.5 4.2.8 1.5-1.5 3-.6 2.8 1.3 3.5 3.5 2.7-1.2 3-.7 1.4-1.9 2.3 1 1.7-1.7h1.9l1.8 1.8 1.7-1.7 4.9-4.9 3.6.6v-2.3l4.5-1.7 3.2.6 3.3-2.1-.2-3.4 5.4-3.2 5.1-4.2-1.9-4.4V429l-2.2-2.2 1.9-1.9.6-4.3-4.6-2h-3.7l-.4-2.2 2.6-.5-1.4-2.7.7-5.1-3.1-.5-3.1-3.2 2.7-.6.3-4-1.2-1.2-.7-2.1 1-2.6-2.1-2.1 1.8-2.4-1.5-1.5v-3.6l3.4-1.8 2.3-1.3 2.7.3 2.2-2.2 3-1.2.4-2.9-1.9-1.9 1.1-2.8 3.9-.7 5.1-5.1-.2-5.7 3.6-1.2v-1.9l-3.6-3.6-.8-2.6-4-4-2.6-.6-.5-3.2.6-3.9-2-2 3.1-4v-3.5l.2-4.4-1.6-1.6-.8-3.1-1.5-1.5-.1-3.9 2.9-.6 2.5.6 3.2 1.8 3.2-1.7 2.6-.8 2.6-2.6 1.9-3.3 2.5.1 1.5-.9 1.1 1.1 1.4-.5v-2.8l-.2-4.6.5-3.1-2.5-2.5-.6-2-2.2-2.2-3.9-2-1-2.4-2.7-3.6v-2l-1.4-.6.6-3.3 1.1-1.1-1.9-1.9.5-2.9 4.4-1.8v-1.6l3.3.1-.3-3.7-2.5-.7-1.7-2.2 2.1-2h2.1v-2.6l2.1-1.5v-1.9l2.6-.6 1.6 1.9 2.2-.3 1.1-2.4-.7-2.1 2.3-3.6.7-2.4 2.3-.4v-2.1l-1.1-3-2.7-1.6-2.6-2.6v-3l-.2-3.3-2.5-1.3-1.8-2.4v-2.8l2-.4-.9-2.7-2.8-.8.5-2.5 2.9-1.1v-2.9l1.4-1.4h3.2l.3-3.4h4.2l1.7-1.7-1-3.4 1.5-2.8-2-3.2H869l-1.8-3.5-2-2h-2.7l-3.4 1.1-3.1-1.4-3.3-.5v-3.9l-2.6-1.5-1.1-3.3 2-3.1v-3.4l2.3-1.6v-3.3l1.6-4 3.4-2.6-2.6-4.4-3-1.1-.8-2.1-3.3-.4-4-1.4-1.4-1.8zM139 276.8h15.3v4.9l1.8 6.2 6.3 18.2 3.9 1.8 2.4 4.4 1.8 7-2.4 5.1-2.2 2.7-2.1.3-1 1.8-3.2-.5-1.8 1.8-1.3-5-1.3-1.3-1.9-.7 1-2v-2l-2.1-1-.3-2-2.4-.1-1.4 1.4-1.8-2.3.5-4.3-1.5-.3-1.7-1.7-1.6 1.3-1.7.5-2.5-1.1-2.7-.3h-3.8l-1.2-2.3-1.4.7-1.2 1.2-2.2-.2-.7-3.3.9-3-1.1-2.4-.1-2.4-2.2-2.2 1.1-2.2-2-2.4 3.3-2 4.5 1 .7-2.5 1.5-1.5 2.8 1.4 2.3 2.5 3.7 1.1 1.3 3-.5.6v.9l-.8 3 1.2-.2 1.5 1.1.6-.5h.7l1.5-.7V297l.8-1v-1.2l-.5-.6-1.1 1.3-.4-4.9-3-2.6v-5.7l2.7-.7.8-.8-3.6-1.5-2.2-2.5z"/><path d="M154.3 276.8v4.9l1.8 6.2 6.3 18.2 3.9 1.8 2.4 4.4 1.8 7 3.8-2.1 2.5-3.6 1.8 1 3.1-1.6 2.7-1 2.8.5 2.4 1.1 2.7-.6 2.2 1.4.2 1.5 2.3 2.6 1.3-1.5 1.2-.3 3.3-3.2.5-2.7-.3-2.3 2.8-.8 1.2-3.4-3.2-3.2.5-4.1.8-1.9 2.1-1.1 1-2.3-.2-2.6 1-1.1 1.3 1.6.7-.7 1.8 1.1 2.1-3 2.4-4.2-2.5-7.8 3.1-3.1 1.3-5.9 3.2-3.3 4.1-1.2 2.3-5.2.7-3.7-2.4-2.4 1.8-1.8-.1-4.3-2 .2-1.8-1.1-2.8.7-1.8-1.8.9-2.4.4-3-8-7.2-6.2 11.5-2.8-1.4-5.9 4.7-2.6.2v5.6l-3 1.2v4.3l-4 3.2h-4.7l-1.2 11v4.3l-7 2.5-22 .2z"/></symbol></svg>